<svg width="87" height="87" viewBox="0 0 87 87" fill="none" xmlns="http://www.w3.org/2000/svg">
<path d="M81.6861 47.459C80.8602 47.4598 80.0496 47.6821 79.3389 48.1028L64.1158 32.8797C63.8959 32.6596 63.5975 32.5358 63.2863 32.5357H44.5928V25.2729H77.1896C77.475 26.3678 78.1496 27.3212 79.0872 27.9547C80.0248 28.5881 81.1611 28.8582 82.2835 28.7143C83.4058 28.5704 84.4372 28.0225 85.1848 27.173C85.9323 26.3236 86.3446 25.2308 86.3446 24.0993C86.3446 22.9678 85.9323 21.875 85.1848 21.0256C84.4372 20.1761 83.4058 19.6282 82.2835 19.4843C81.1611 19.3404 80.0248 19.6105 79.0872 20.2439C78.1496 20.8774 77.475 21.8308 77.1896 22.9257H44.5928V17.6728H63.2863C63.5975 17.6726 63.8959 17.5488 64.1158 17.3287L69.1455 12.2991C70.1511 12.8225 71.3131 12.9616 72.4138 12.6901C73.5146 12.4187 74.4787 11.7554 75.1256 10.8244C75.7726 9.89341 76.0582 8.75855 75.9288 7.63223C75.7994 6.50592 75.264 5.46536 74.4227 4.70533C73.5815 3.9453 72.4921 3.51791 71.3585 3.50314C70.2248 3.48837 69.1247 3.88725 68.2639 4.62511C67.4032 5.36297 66.8408 6.38923 66.6822 7.51179C66.5235 8.63435 66.7793 9.77627 67.4019 10.7238L62.8001 15.3256H44.5928V13.5511C44.5903 10.0963 43.2507 6.77661 40.8547 4.28769C38.4587 1.79877 35.1923 0.333867 31.7401 0.199994C28.2879 0.0661198 24.9179 1.27367 22.3363 3.56956C19.7548 5.86546 18.1621 9.07147 17.8921 12.5157C15.1441 12.9195 12.6331 14.298 10.8172 16.3996C9.00137 18.5012 8.00184 21.1857 8.00109 23.9632C7.99981 25.3737 8.25993 26.7723 8.76828 28.0881C6.25253 29.8454 4.19087 32.1759 2.75352 34.8872C1.31617 37.5985 0.544376 40.6127 0.501858 43.6812C0.459339 46.7496 1.14732 49.7841 2.50899 52.5342C3.87066 55.2842 5.86696 57.671 8.33305 59.4973C7.94996 61.0619 7.89806 62.6894 8.18067 64.2753C8.46327 65.8612 9.07415 67.3705 9.97413 68.7066C10.8741 70.0426 12.0434 71.1758 13.4069 72.0336C14.7704 72.8913 16.2981 73.4547 17.8921 73.6876C18.1621 77.1319 19.7549 80.338 22.3366 82.6339C24.9183 84.9298 28.2885 86.1373 31.7408 86.0032C35.1931 85.8692 38.4594 84.404 40.8553 81.9148C43.2512 79.4256 44.5906 76.1057 44.5928 72.6508V72.4416H57.4351L62.4366 78.7977C61.7752 79.7225 61.4736 80.8567 61.5883 81.9879C61.703 83.1191 62.2262 84.1697 63.0598 84.9429C63.8935 85.7161 64.9804 86.1589 66.117 86.1884C67.2536 86.2178 68.362 85.8319 69.2345 85.1029C70.1071 84.3739 70.6839 83.3518 70.8571 82.228C71.0302 81.1043 70.7877 79.956 70.1751 78.9981C69.5624 78.0403 68.6216 77.3387 67.5288 77.0246C66.436 76.7106 65.2662 76.8057 64.2385 77.2921L58.9272 70.5424C58.8175 70.4028 58.6774 70.29 58.5177 70.2124C58.358 70.1348 58.1827 70.0944 58.0051 70.0944H44.5928V63.0529H56.9871C57.2726 64.1478 57.9472 65.1012 58.8848 65.7347C59.8224 66.3681 60.9587 66.6382 62.0811 66.4943C63.2034 66.3504 64.2348 65.8025 64.9824 64.953C65.7299 64.1036 66.1422 63.0108 66.1422 61.8793C66.1422 60.7478 65.7299 59.655 64.9824 58.8056C64.2348 57.9561 63.2034 57.4082 62.0811 57.2643C60.9587 57.1204 59.8224 57.3905 58.8848 58.0239C57.9472 58.6574 57.2726 59.6108 56.9871 60.7057H44.5928V53.6642H64.3633C64.6487 54.7592 65.3233 55.7126 66.2609 56.346C67.1985 56.9794 68.3348 57.2495 69.4572 57.1056C70.5795 56.9618 71.611 56.4138 72.3585 55.5644C73.106 54.7149 73.5184 53.6222 73.5184 52.4906C73.5184 51.3591 73.106 50.2664 72.3585 49.4169C71.611 48.5675 70.5795 48.0195 69.4572 47.8756C68.3348 47.7318 67.1985 48.0018 66.2609 48.6353C65.3233 49.2687 64.6487 50.2221 64.3633 51.317H44.5928V44.2755H51.647C51.9593 45.3633 52.6573 46.2999 53.6103 46.9102C54.5633 47.5205 55.7061 47.7625 56.8247 47.5911C57.9433 47.4196 58.9611 46.8464 59.6876 45.9787C60.4141 45.1111 60.7995 44.0084 60.7717 42.877C60.7439 41.7457 60.3048 40.6633 59.5366 39.8323C58.7683 39.0014 57.7236 38.4789 56.5979 38.3626C55.4723 38.2463 54.3428 38.5442 53.4209 39.2005C52.499 39.8568 51.8478 40.8266 51.5893 41.9284H44.5928V34.8869H62.8001L77.6778 49.7639C77.1609 50.6484 76.9507 51.6788 77.0799 52.695C77.209 53.7113 77.6703 54.6564 78.392 55.3835C79.1136 56.1105 80.0553 56.5788 81.0705 56.7155C82.0858 56.8522 83.1178 56.6497 84.0061 56.1395C84.8943 55.6292 85.5892 54.8398 85.9826 53.8939C86.3759 52.948 86.4458 51.8987 86.1813 50.909C85.9168 49.9193 85.3328 49.0447 84.52 48.4212C83.7072 47.7976 82.7111 47.4601 81.6867 47.461L81.6861 47.459ZM81.6861 21.7937C82.1421 21.7936 82.5879 21.9287 82.9671 22.1819C83.3464 22.4352 83.642 22.7952 83.8166 23.2165C83.9912 23.6378 84.037 24.1014 83.9481 24.5487C83.8592 24.996 83.6397 25.4068 83.3173 25.7294C82.9948 26.0519 82.584 26.2715 82.1368 26.3605C81.6895 26.4495 81.2259 26.4039 80.8046 26.2294C80.3832 26.055 80.0231 25.7594 79.7697 25.3803C79.5164 25.0011 79.3811 24.5553 79.3811 24.0993C79.3817 23.4881 79.6247 22.9021 80.0568 22.4698C80.4889 22.0376 81.0749 21.7944 81.6861 21.7937ZM71.2915 5.86583C71.7473 5.86583 72.193 6.00101 72.572 6.25428C72.951 6.50754 73.2465 6.86752 73.4209 7.28869C73.5954 7.70986 73.641 8.1733 73.5521 8.62041C73.4632 9.06752 73.2436 9.47822 72.9213 9.80057C72.5989 10.1229 72.1882 10.3424 71.7411 10.4314C71.294 10.5203 70.8306 10.4747 70.4094 10.3002C69.9882 10.1258 69.6283 9.83033 69.375 9.45129C69.1217 9.07225 68.9865 8.62662 68.9865 8.17075C68.9872 7.55966 69.2303 6.97381 69.6624 6.54171C70.0945 6.1096 70.6804 5.86654 71.2915 5.86583ZM68.5251 81.4929C68.5251 81.9488 68.39 82.3944 68.1367 82.7735C67.8834 83.1525 67.5235 83.4479 67.1023 83.6224C66.6811 83.7968 66.2177 83.8425 65.7706 83.7535C65.3234 83.6646 64.9128 83.4451 64.5904 83.1227C64.2681 82.8004 64.0485 82.3897 63.9596 81.9426C63.8707 81.4955 63.9163 81.032 64.0908 80.6108C64.2652 80.1897 64.5606 79.8297 64.9397 79.5764C65.3187 79.3232 65.7644 79.188 66.2202 79.188C66.8313 79.1887 67.4172 79.4318 67.8493 79.8639C68.2814 80.296 68.5244 80.8818 68.5251 81.4929ZM61.4836 59.5724C61.9397 59.5722 62.3856 59.7074 62.7648 59.9607C63.1441 60.2139 63.4397 60.574 63.6143 60.9953C63.7889 61.4167 63.8346 61.8803 63.7456 62.3276C63.6567 62.7749 63.4371 63.1858 63.1146 63.5083C62.7921 63.8307 62.3813 64.0503 61.934 64.1393C61.4866 64.2282 61.023 64.1825 60.6017 64.0079C60.1804 63.8333 59.8203 63.5377 59.567 63.1585C59.3137 62.7792 59.1786 62.3333 59.1787 61.8773C59.1794 61.2662 59.4225 60.6804 59.8546 60.2483C60.2867 59.8162 60.8726 59.5731 61.4836 59.5724ZM68.8605 50.1837C69.3165 50.1836 69.7624 50.3187 70.1416 50.572C70.5209 50.8253 70.8165 51.1854 70.9911 51.6067C71.1657 52.028 71.2114 52.4916 71.1225 52.9389C71.0335 53.3862 70.8139 53.7971 70.4914 54.1196C70.1689 54.4421 69.7581 54.6617 69.3108 54.7506C68.8635 54.8396 68.3998 54.7938 67.9785 54.6192C67.5572 54.4447 67.1971 54.149 66.9438 53.7698C66.6905 53.3905 66.5554 52.9447 66.5555 52.4886C66.5563 51.8775 66.7993 51.2917 67.2314 50.8596C67.6635 50.4275 68.2494 50.1844 68.8605 50.1837ZM56.1147 40.6817C56.5707 40.6816 57.0165 40.8167 57.3958 41.0699C57.775 41.3232 58.0706 41.6832 58.2452 42.1045C58.4198 42.5258 58.4656 42.9894 58.3767 43.4367C58.2878 43.884 58.0683 44.2948 57.7459 44.6173C57.4235 44.9399 57.0126 45.1595 56.5654 45.2485C56.1181 45.3375 55.6545 45.2919 55.2332 45.1174C54.8119 44.943 54.4517 44.6474 54.1984 44.2683C53.945 43.8891 53.8098 43.4433 53.8098 42.9873C53.8103 42.3761 54.0533 41.7901 54.4854 41.3578C54.9175 40.9256 55.5035 40.6824 56.1147 40.6817ZM42.2456 72.6495C42.2266 75.5583 41.0587 78.3418 38.9963 80.3932C36.9338 82.4446 34.1442 83.5977 31.2353 83.6012C28.3263 83.6046 25.534 82.4582 23.4667 80.4116C21.3994 78.3651 20.2249 75.5844 20.199 72.6756C20.199 72.6568 20.199 72.6367 20.199 72.6213C20.1991 72.3208 20.0839 72.0317 19.8771 71.8136C19.6704 71.5955 19.3879 71.465 19.0878 71.449C17.6736 71.3761 16.2954 70.9782 15.0599 70.2864C13.8243 69.5946 12.7648 68.6275 11.9636 67.46C11.1623 66.2925 10.6408 64.9561 10.4395 63.5545C10.2382 62.1528 10.3626 60.7237 10.8029 59.3779C10.8819 59.1355 10.8798 58.8741 10.7969 58.633C10.714 58.392 10.5549 58.1845 10.3436 58.042C7.99184 56.4569 6.07402 54.3087 4.76475 51.793C3.45547 49.2772 2.79635 46.4739 2.84741 43.6383C2.89847 40.8028 3.65809 38.025 5.05708 35.558C6.45608 33.0911 8.45 31.0133 10.8573 29.5139C11.1036 29.3602 11.2842 29.1207 11.3642 28.8417C11.4442 28.5626 11.4179 28.2638 11.2905 28.003C10.619 26.6347 10.2977 25.1212 10.3554 23.5982C10.4131 22.0751 10.8479 20.5903 11.6209 19.2767C12.3939 17.9632 13.4809 16.862 14.7844 16.0721C16.0878 15.2822 17.567 14.8282 19.0891 14.7509C19.3892 14.7349 19.6717 14.6044 19.8785 14.3863C20.0852 14.1682 20.2004 13.8791 20.2003 13.5786C20.2003 13.5639 20.2003 13.5444 20.2003 13.525C20.2261 10.6162 21.4006 7.83546 23.4678 5.78888C25.535 3.74229 28.3274 2.59575 31.2363 2.59911C34.1452 2.60247 36.9349 3.75547 38.9973 5.80683C41.0598 7.85818 42.2279 10.6416 42.2469 13.5505L42.2456 72.6495ZM81.6861 54.4173C81.23 54.4173 80.7842 54.2821 80.4051 54.0287C80.0259 53.7753 79.7304 53.4152 79.5559 52.9939C79.3814 52.5726 79.3358 52.1089 79.4248 51.6617C79.5138 51.2144 79.7335 50.8036 80.056 50.4812C80.3785 50.1588 80.7894 49.9392 81.2367 49.8504C81.6839 49.7615 82.1475 49.8072 82.5688 49.9818C82.9901 50.1564 83.3502 50.4521 83.6034 50.8313C83.8567 51.2105 83.9918 51.6564 83.9916 52.1124C83.9908 52.7235 83.7475 53.3093 83.3153 53.7412C82.8831 54.1732 82.2971 54.4168 81.6861 54.4173Z" fill="#0A1216"/>
<path fill-rule="evenodd" clip-rule="evenodd" d="M79.3389 48.1028C80.0496 47.6821 80.8602 47.4598 81.6861 47.459L81.6867 47.461C82.7111 47.4601 83.7072 47.7976 84.52 48.4212C85.3328 49.0447 85.9168 49.9193 86.1813 50.909C86.4458 51.8987 86.3759 52.948 85.9826 53.8939C85.5892 54.8398 84.8943 55.6292 84.0061 56.1395C83.1178 56.6497 82.0858 56.8522 81.0705 56.7155C80.0553 56.5788 79.1136 56.1105 78.392 55.3835C77.6703 54.6564 77.209 53.7113 77.0799 52.695C76.9507 51.6788 77.1609 50.6484 77.6778 49.7639L62.8001 34.8869H44.5928V32.5357H63.2863C63.5975 32.5358 63.8959 32.6596 64.1158 32.8797L79.3389 48.1028ZM44.5928 25.2729H77.1896C77.475 26.3678 78.1496 27.3212 79.0872 27.9547C80.0248 28.5881 81.1611 28.8582 82.2835 28.7143C83.4058 28.5704 84.4372 28.0225 85.1848 27.173C85.9323 26.3236 86.3446 25.2308 86.3446 24.0993C86.3446 22.9678 85.9323 21.875 85.1848 21.0256C84.4372 20.1761 83.4058 19.6282 82.2835 19.4843C81.1611 19.3404 80.0248 19.6105 79.0872 20.2439C78.1496 20.8774 77.475 21.8308 77.1896 22.9257H44.5928V25.2729ZM44.5928 17.6728H63.2863C63.5975 17.6726 63.8959 17.5488 64.1158 17.3287L69.1455 12.2991C70.1511 12.8225 71.3131 12.9616 72.4138 12.6901C73.5146 12.4187 74.4787 11.7554 75.1256 10.8244C75.7726 9.89341 76.0582 8.75855 75.9288 7.63223C75.7994 6.50592 75.264 5.46536 74.4227 4.70533C73.5815 3.9453 72.4921 3.51791 71.3585 3.50314C70.2248 3.48837 69.1247 3.88725 68.2639 4.62511C67.4032 5.36297 66.8408 6.38923 66.6822 7.51179C66.5235 8.63435 66.7793 9.77627 67.4019 10.7238L62.8001 15.3256H44.5928V17.6728ZM44.5928 72.4416H57.4351L62.4366 78.7977C61.7752 79.7225 61.4736 80.8567 61.5883 81.9879C61.703 83.1191 62.2262 84.1697 63.0598 84.9429C63.8935 85.7161 64.9804 86.1589 66.117 86.1884C67.2536 86.2178 68.362 85.8319 69.2345 85.1029C70.1071 84.3739 70.6839 83.3518 70.8571 82.228C71.0302 81.1043 70.7877 79.956 70.1751 78.9981C69.5624 78.0403 68.6216 77.3387 67.5288 77.0246C66.436 76.7106 65.2662 76.8057 64.2385 77.2921L58.9272 70.5424C58.8175 70.4028 58.6774 70.29 58.5177 70.2124C58.358 70.1348 58.1827 70.0944 58.0051 70.0944H44.5928V72.4416ZM44.5928 63.0529H56.9871C57.2726 64.1478 57.9472 65.1012 58.8848 65.7347C59.8224 66.3681 60.9587 66.6382 62.0811 66.4943C63.2034 66.3504 64.2348 65.8025 64.9824 64.953C65.7299 64.1036 66.1422 63.0108 66.1422 61.8793C66.1422 60.7478 65.7299 59.655 64.9824 58.8056C64.2348 57.9561 63.2034 57.4082 62.0811 57.2643C60.9587 57.1204 59.8224 57.3905 58.8848 58.0239C57.9472 58.6574 57.2726 59.6108 56.9871 60.7057H44.5928V63.0529ZM44.5928 53.6642H64.3633C64.6487 54.7592 65.3233 55.7126 66.2609 56.346C67.1985 56.9794 68.3348 57.2495 69.4572 57.1056C70.5795 56.9618 71.611 56.4138 72.3585 55.5644C73.106 54.7149 73.5184 53.6222 73.5184 52.4906C73.5184 51.3591 73.106 50.2664 72.3585 49.4169C71.611 48.5675 70.5795 48.0195 69.4572 47.8756C68.3348 47.7318 67.1985 48.0018 66.2609 48.6353C65.3233 49.2687 64.6487 50.2221 64.3633 51.317H44.5928V53.6642ZM44.5928 44.2755H51.647C51.9593 45.3633 52.6573 46.2999 53.6103 46.9102C54.5633 47.5205 55.7061 47.7625 56.8247 47.5911C57.9433 47.4196 58.9611 46.8464 59.6876 45.9787C60.4141 45.1111 60.7995 44.0084 60.7717 42.877C60.7439 41.7457 60.3048 40.6633 59.5366 39.8323C58.7683 39.0014 57.7236 38.4789 56.5979 38.3626C55.4723 38.2463 54.3428 38.5442 53.4209 39.2005C52.499 39.8568 51.8478 40.8266 51.5893 41.9284H44.5928V44.2755ZM82.9671 22.1819C82.5879 21.9287 82.1421 21.7936 81.6861 21.7937C81.0749 21.7944 80.4889 22.0376 80.0568 22.4698C79.6247 22.9021 79.3817 23.4881 79.3811 24.0993C79.3811 24.5553 79.5164 25.0011 79.7697 25.3803C80.0231 25.7594 80.3832 26.055 80.8046 26.2294C81.2259 26.4039 81.6895 26.4495 82.1368 26.3605C82.584 26.2715 82.9948 26.0519 83.3173 25.7294C83.6397 25.4068 83.8592 24.996 83.9481 24.5487C84.037 24.1014 83.9912 23.6378 83.8166 23.2165C83.642 22.7952 83.3464 22.4352 82.9671 22.1819ZM72.572 6.25428C72.193 6.00101 71.7473 5.86583 71.2915 5.86583C70.6804 5.86654 70.0945 6.1096 69.6624 6.54171C69.2303 6.97381 68.9872 7.55966 68.9865 8.17075C68.9865 8.62662 69.1217 9.07225 69.375 9.45129C69.6283 9.83033 69.9882 10.1258 70.4094 10.3002C70.8306 10.4747 71.294 10.5203 71.7411 10.4314C72.1882 10.3424 72.5989 10.1229 72.9213 9.80057C73.2436 9.47822 73.4632 9.06752 73.5521 8.62041C73.641 8.1733 73.5954 7.70986 73.4209 7.28869C73.2465 6.86752 72.951 6.50754 72.572 6.25428ZM68.1367 82.7735C68.39 82.3944 68.5251 81.9488 68.5251 81.4929C68.5244 80.8818 68.2814 80.296 67.8493 79.8639C67.4172 79.4318 66.8313 79.1887 66.2202 79.188C65.7644 79.188 65.3187 79.3232 64.9397 79.5764C64.5606 79.8297 64.2652 80.1897 64.0908 80.6108C63.9163 81.032 63.8707 81.4955 63.9596 81.9426C64.0485 82.3897 64.2681 82.8004 64.5904 83.1227C64.9128 83.4451 65.3234 83.6646 65.7706 83.7535C66.2177 83.8425 66.6811 83.7968 67.1023 83.6224C67.5235 83.4479 67.8834 83.1525 68.1367 82.7735ZM62.7648 59.9607C62.3856 59.7074 61.9397 59.5722 61.4836 59.5724C60.8726 59.5731 60.2867 59.8162 59.8546 60.2483C59.4225 60.6804 59.1794 61.2662 59.1787 61.8773C59.1786 62.3333 59.3137 62.7792 59.567 63.1585C59.8203 63.5377 60.1804 63.8333 60.6017 64.0079C61.023 64.1825 61.4866 64.2282 61.934 64.1393C62.3813 64.0503 62.7921 63.8307 63.1146 63.5083C63.4371 63.1858 63.6567 62.7749 63.7456 62.3276C63.8346 61.8803 63.7889 61.4167 63.6143 60.9953C63.4397 60.574 63.1441 60.2139 62.7648 59.9607ZM70.1416 50.572C69.7624 50.3187 69.3165 50.1836 68.8605 50.1837C68.2494 50.1844 67.6635 50.4275 67.2314 50.8596C66.7993 51.2917 66.5563 51.8775 66.5555 52.4886C66.5554 52.9447 66.6905 53.3905 66.9438 53.7698C67.1971 54.149 67.5572 54.4447 67.9785 54.6192C68.3998 54.7938 68.8635 54.8396 69.3108 54.7506C69.7581 54.6617 70.1689 54.4421 70.4914 54.1196C70.8139 53.7971 71.0335 53.3862 71.1225 52.9389C71.2114 52.4916 71.1657 52.028 70.9911 51.6067C70.8165 51.1854 70.5209 50.8253 70.1416 50.572ZM57.3958 41.0699C57.0165 40.8167 56.5707 40.6816 56.1147 40.6817C55.5035 40.6824 54.9175 40.9256 54.4854 41.3578C54.0533 41.7901 53.8103 42.3761 53.8098 42.9873C53.8098 43.4433 53.945 43.8891 54.1984 44.2683C54.4517 44.6474 54.8119 44.943 55.2332 45.1174C55.6545 45.2919 56.1181 45.3375 56.5654 45.2485C57.0126 45.1595 57.4235 44.9399 57.7459 44.6173C58.0683 44.2948 58.2878 43.884 58.3767 43.4367C58.4656 42.9894 58.4198 42.5258 58.2452 42.1045C58.0706 41.6832 57.775 41.3232 57.3958 41.0699ZM80.4051 54.0287C80.7842 54.2821 81.23 54.4173 81.6861 54.4173C82.2971 54.4168 82.8831 54.1732 83.3153 53.7412C83.7475 53.3093 83.9908 52.7235 83.9916 52.1124C83.9918 51.6564 83.8567 51.2105 83.6034 50.8313C83.3502 50.4521 82.9901 50.1564 82.5688 49.9818C82.1475 49.8072 81.6839 49.7615 81.2367 49.8504C80.7894 49.9392 80.3785 50.1588 80.056 50.4812C79.7335 50.8036 79.5138 51.2144 79.4248 51.6617C79.3358 52.1089 79.3814 52.5726 79.5559 52.9939C79.7304 53.4152 80.0259 53.7753 80.4051 54.0287Z" fill="#114DC8"/>
<path d="M78.2076 30.5244C77.2874 30.5243 76.3877 30.7971 75.6225 31.3082C74.8573 31.8194 74.2608 32.546 73.9086 33.3962C73.5563 34.2463 73.4641 35.1819 73.6435 36.0845C73.823 36.9871 74.2661 37.8162 74.9167 38.4669C75.5674 39.1177 76.3964 39.5609 77.299 39.7405C78.2016 39.9201 79.1371 39.828 79.9873 39.4758C80.8376 39.1237 81.5643 38.5273 82.0755 37.7622C82.5868 36.997 82.8597 36.0974 82.8597 35.1772C82.8583 33.9437 82.3677 32.7612 81.4956 31.889C80.6235 31.0167 79.4411 30.526 78.2076 30.5244ZM78.2076 37.4821C77.7516 37.4822 77.3057 37.3471 76.9265 37.0938C76.5472 36.8405 76.2516 36.4804 76.077 36.0591C75.9024 35.6378 75.8567 35.1742 75.9456 34.7269C76.0346 34.2796 76.2542 33.8687 76.5767 33.5462C76.8991 33.2237 77.31 33.0041 77.7573 32.9152C78.2046 32.8262 78.6683 32.872 79.0896 33.0465C79.5109 33.2211 79.871 33.5167 80.1243 33.896C80.3776 34.2753 80.5127 34.7211 80.5125 35.1772C80.5118 35.7883 80.2688 36.3741 79.8367 36.8062C79.4046 37.2383 78.8187 37.4814 78.2076 37.4821Z" fill="#114DC8"/>
<path d="M78.2076 62.4146C77.2874 62.4144 76.3877 62.6872 75.6225 63.1984C74.8573 63.7095 74.2608 64.4361 73.9086 65.2863C73.5563 66.1365 73.4641 67.072 73.6435 67.9746C73.823 68.8772 74.2661 69.7063 74.9167 70.3571C75.5674 71.0078 76.3964 71.451 77.299 71.6306C78.2016 71.8102 79.1371 71.7181 79.9873 71.366C80.8376 71.0138 81.5643 70.4175 82.0755 69.6523C82.5868 68.8872 82.8597 67.9876 82.8597 67.0673C82.8583 65.8339 82.3677 64.6513 81.4956 63.7791C80.6235 62.9069 79.4411 62.4161 78.2076 62.4146ZM78.2076 69.3722C77.7516 69.3724 77.3058 69.2373 76.9265 68.984C76.5473 68.7307 76.2517 68.3707 76.0771 67.9494C75.9025 67.5281 75.8567 67.0645 75.9456 66.6172C76.0345 66.17 76.254 65.7591 76.5764 65.4366C76.8988 65.1141 77.3097 64.8944 77.7569 64.8054C78.2042 64.7164 78.6678 64.762 79.0891 64.9365C79.5104 65.111 79.8706 65.4065 80.1239 65.7857C80.3773 66.1648 80.5125 66.6106 80.5125 67.0666C80.512 67.6778 80.269 68.2639 79.8369 68.6961C79.4048 69.1284 78.8188 69.3715 78.2076 69.3722Z" fill="#114DC8"/>
</svg>
