<svg width="100" height="101" viewBox="0 0 100 101" fill="none" xmlns="http://www.w3.org/2000/svg">
<path d="M89.2338 59.4435L74.5126 50.5649C74.1061 50.3193 73.6402 50.1895 73.1653 50.1895C72.6904 50.1895 72.2245 50.3193 71.818 50.5649L66.3794 53.8462L56.2995 47.1236L66.566 40.9304C66.9511 40.6965 67.2697 40.3677 67.4914 39.9755C67.7132 39.5834 67.8307 39.1409 67.8327 38.6904V21.6906C67.8317 21.2393 67.7149 20.7958 67.4933 20.4026C67.2718 20.0095 66.9529 19.6798 66.5674 19.4453L51.8462 10.5654C51.4397 10.3198 50.9738 10.1899 50.4989 10.1899C50.024 10.1899 49.5581 10.3198 49.1516 10.5654L34.4317 19.4453C34.0462 19.6798 33.7273 20.0095 33.5058 20.4026C33.2842 20.7958 33.1674 21.2393 33.1664 21.6906V38.6904C33.1674 39.1417 33.2842 39.5852 33.5058 39.9783C33.7273 40.3715 34.0462 40.7012 34.4317 40.9357L44.6983 47.129L34.6184 53.8462L29.1785 50.5649C28.772 50.3193 28.3061 50.1895 27.8311 50.1895C27.3562 50.1895 26.8903 50.3193 26.4838 50.5649L11.764 59.4448C11.3789 59.6798 11.0604 60.0095 10.8391 60.4026C10.6178 60.7957 10.5011 61.239 10.5 61.6902V78.69C10.5012 79.1414 10.6182 79.585 10.8397 79.9783C11.0612 80.3716 11.3799 80.7016 11.7653 80.9366L26.4865 89.8152C26.8931 90.0604 27.359 90.1899 27.8338 90.1899C28.3086 90.1899 28.7745 90.0604 29.1811 89.8152L43.9023 80.9353C44.2874 80.7004 44.6059 80.3706 44.8271 79.9775C45.0484 79.5844 45.1652 79.1411 45.1663 78.69V72.8567H55.8328V78.69C55.8341 79.1414 55.951 79.585 56.1725 79.9783C56.3941 80.3716 56.7127 80.7016 57.0981 80.9366L71.8193 89.8152C72.226 90.0604 72.6918 90.1899 73.1666 90.1899C73.6415 90.1899 74.1073 90.0604 74.5139 89.8152L89.2351 80.9353C89.6202 80.7004 89.9387 80.3706 90.16 79.9775C90.3813 79.5844 90.498 79.1411 90.4991 78.69V61.6902C90.4979 61.2387 90.3809 60.7952 90.1594 60.4018C89.9379 60.0085 89.6192 59.6786 89.2338 59.4435ZM73.1366 52.8489L86.9551 61.1848L73.15 69.4981L59.3728 61.1848L73.1366 52.8489ZM51.8329 46.7423V31.8091C51.8515 31.7985 51.8742 31.7945 51.8929 31.7838L65.166 23.7706L65.1874 38.6517L51.8329 46.7423ZM50.4702 12.8493L64.2887 21.1853L50.4835 29.4998L36.7064 21.1853L50.4702 12.8493ZM35.8117 23.7599L49.1169 31.7905C49.1329 31.7998 49.1502 31.8025 49.1662 31.8105V46.7116L35.833 38.6904L35.8117 23.7599ZM27.8038 52.8489L41.6223 61.1848L27.8171 69.4981L14.04 61.1848L27.8038 52.8489ZM13.1666 78.69L13.1466 63.7568L26.4505 71.79C26.4665 71.7994 26.4838 71.802 26.4998 71.8114V86.7112L13.1666 78.69ZM29.1665 86.7419V71.8087C29.1851 71.798 29.2078 71.7954 29.2265 71.7834L42.4996 63.7701L42.521 78.6526L29.1665 86.7419ZM45.1663 70.1901V61.6902C45.165 61.2387 45.0481 60.7952 44.8266 60.4018C44.605 60.0085 44.2864 59.6786 43.901 59.4435L37.1437 55.3689L47.2236 48.6516L49.1529 49.8156C49.5595 50.0608 50.0254 50.1904 50.5002 50.1904C50.9751 50.1904 51.4409 50.0608 51.8475 49.8156L53.7755 48.6516L63.8554 55.3689L57.0968 59.4448C56.7117 59.6798 56.3932 60.0095 56.1719 60.4026C55.9506 60.7957 55.8339 61.239 55.8328 61.6902V70.1901H45.1663ZM58.4995 78.69L58.4795 63.7568L71.7833 71.79C71.7993 71.7994 71.8166 71.802 71.8326 71.8114V86.7112L58.4995 78.69ZM74.4993 86.7419V71.8087C74.5179 71.798 74.5406 71.7954 74.5593 71.7834L87.8325 63.7701L87.8538 78.6526L74.4993 86.7419Z" fill="#0A1216"/>
<path fill-rule="evenodd" clip-rule="evenodd" d="M44.6983 47.129L47.2236 48.6516L49.1529 49.8156C49.5595 50.0608 50.0254 50.1904 50.5002 50.1904C50.9751 50.1904 51.4409 50.0608 51.8475 49.8156L53.7755 48.6516L56.2995 47.1236L66.566 40.9304C66.9511 40.6965 67.2697 40.3677 67.4914 39.9755C67.7132 39.5834 67.8307 39.1409 67.8327 38.6904V21.6906C67.8317 21.2393 67.7149 20.7958 67.4933 20.4026C67.2718 20.0095 66.9529 19.6798 66.5674 19.4453L51.8462 10.5654C51.4397 10.3198 50.9738 10.1899 50.4989 10.1899C50.024 10.1899 49.5581 10.3198 49.1516 10.5654L34.4317 19.4453C34.0462 19.6798 33.7273 20.0095 33.5058 20.4026C33.2842 20.7958 33.1674 21.2393 33.1664 21.6906V38.6904C33.1674 39.1417 33.2842 39.5852 33.5058 39.9783C33.7273 40.3715 34.0462 40.7012 34.4317 40.9357L44.6983 47.129ZM51.8329 31.8091V46.7423L65.1874 38.6517L65.166 23.7706L51.8929 31.7838C51.8835 31.7891 51.8732 31.7928 51.8629 31.7965C51.8525 31.8001 51.8422 31.8038 51.8329 31.8091ZM64.2887 21.1853L50.4702 12.8493L36.7064 21.1853L50.4835 29.4998L64.2887 21.1853ZM49.1169 31.7905L35.8117 23.7599L35.833 38.6904L49.1662 46.7116V31.8105C49.1591 31.8069 49.1516 31.8044 49.1441 31.8018C49.135 31.7987 49.1257 31.7956 49.1169 31.7905Z" fill="#114DC8"/>
</svg>
