<svg width="35" height="41" viewBox="0 0 35 41" fill="none" xmlns="http://www.w3.org/2000/svg">
<path fill-rule="evenodd" clip-rule="evenodd" d="M11.6983 37.129L14.2236 38.6516L16.1529 39.8156C16.5595 40.0608 17.0254 40.1904 17.5002 40.1904C17.9751 40.1904 18.4409 40.0608 18.8475 39.8156L20.7755 38.6516L23.2995 37.1236L33.566 30.9304C33.9511 30.6965 34.2697 30.3677 34.4914 29.9755C34.7132 29.5834 34.8307 29.1409 34.8327 28.6904V11.6906C34.8317 11.2393 34.7149 10.7958 34.4933 10.4026C34.2718 10.0095 33.9529 9.67983 33.5674 9.44528L18.8462 0.565371C18.4397 0.319763 17.9738 0.189941 17.4989 0.189941C17.024 0.189941 16.5581 0.319763 16.1516 0.565371L1.43173 9.44528C1.04618 9.67983 0.727339 10.0095 0.505777 10.4026C0.284216 10.7958 0.167358 11.2393 0.16641 11.6906V28.6904C0.167358 29.1417 0.284216 29.5852 0.505777 29.9783C0.727339 30.3715 1.04618 30.7012 1.43173 30.9357L11.6983 37.129ZM18.8329 21.8091V36.7423L32.1874 28.6517L32.166 13.7706L18.8929 21.7838C18.8835 21.7891 18.8732 21.7928 18.8629 21.7965C18.8525 21.8001 18.8422 21.8038 18.8329 21.8091ZM31.2887 11.1853L17.4702 2.84935L3.70637 11.1853L17.4835 19.4998L31.2887 11.1853ZM16.1169 21.7905L2.81171 13.7599L2.83305 28.6904L16.1662 36.7116V21.8105C16.1591 21.8069 16.1516 21.8044 16.1441 21.8018C16.135 21.7987 16.1257 21.7956 16.1169 21.7905Z" fill="#114DC8"/>
</svg>
