<svg width="496" height="56" viewBox="0 0 496 56" fill="none" xmlns="http://www.w3.org/2000/svg">
    <path d="M496 28L460.438 1.5784C459.058 0.55345 457.386 0 455.667 0H7.99999C3.58171 0 0 3.58172 0 8V48C0 52.4183 3.58171 56 7.99999 56H455.667C457.386 56 459.058 55.4465 460.438 54.4216L496 28Z" fill="white"/>
    <path d="M45.096 25.1818C45.0193 24.5341 44.7082 24.0312 44.1627 23.6733C43.6173 23.3153 42.9482 23.1364 42.1556 23.1364C41.5761 23.1364 41.069 23.2301 40.6343 23.4176C40.2039 23.6051 39.8673 23.8629 39.6244 24.1911C39.3857 24.5192 39.2664 24.892 39.2664 25.3097C39.2664 25.6591 39.3495 25.9595 39.5157 26.2109C39.6862 26.4581 39.9035 26.6648 40.1677 26.831C40.4319 26.9929 40.7089 27.1271 40.9987 27.2337C41.2884 27.3359 41.5548 27.419 41.7977 27.483L43.1272 27.8409C43.4681 27.9304 43.8474 28.054 44.265 28.2116C44.6869 28.3693 45.0896 28.5845 45.4731 28.8572C45.8609 29.1257 46.1805 29.4709 46.4319 29.8928C46.6833 30.3146 46.809 30.8324 46.809 31.446C46.809 32.1534 46.6237 32.7926 46.2529 33.3636C45.8864 33.9347 45.3495 34.3885 44.6421 34.7251C43.939 35.0618 43.0846 35.2301 42.0789 35.2301C41.1414 35.2301 40.3296 35.0788 39.6435 34.7763C38.9617 34.4737 38.4248 34.0518 38.0327 33.5107C37.645 32.9695 37.4255 32.3409 37.3744 31.625H39.0107C39.0533 32.1193 39.2195 32.5284 39.5093 32.8523C39.8033 33.1719 40.1741 33.4105 40.6215 33.5682C41.0732 33.7216 41.559 33.7983 42.0789 33.7983C42.684 33.7983 43.2273 33.7003 43.7089 33.5043C44.1904 33.304 44.5718 33.027 44.8531 32.6733C45.1343 32.3153 45.2749 31.8977 45.2749 31.4205C45.2749 30.9858 45.1535 30.6321 44.9106 30.3594C44.6677 30.0866 44.3481 29.8651 43.9518 29.6946C43.5555 29.5241 43.1272 29.375 42.667 29.2472L41.0562 28.7869C40.0335 28.4929 39.2238 28.0732 38.6272 27.5277C38.0306 26.9822 37.7323 26.2685 37.7323 25.3864C37.7323 24.6534 37.9305 24.0142 38.3268 23.4688C38.7273 22.919 39.2643 22.4929 39.9376 22.1903C40.6151 21.8835 41.3715 21.7301 42.2068 21.7301C43.0505 21.7301 43.8005 21.8814 44.4568 22.1839C45.113 22.4822 45.6329 22.8913 46.0164 23.4112C46.4042 23.9311 46.6087 24.5213 46.63 25.1818H45.096ZM58.7263 21.9091H60.3115V30.5767C60.3115 31.4716 60.1006 32.2706 59.6787 32.9737C59.2611 33.6726 58.6709 34.2244 57.9081 34.6293C57.1453 35.0298 56.2504 35.2301 55.2235 35.2301C54.1965 35.2301 53.3016 35.0298 52.5388 34.6293C51.776 34.2244 51.1837 33.6726 50.7618 32.9737C50.3442 32.2706 50.1354 31.4716 50.1354 30.5767V21.9091H51.7206V30.4489C51.7206 31.0881 51.8612 31.657 52.1425 32.1555C52.4237 32.6499 52.8243 33.0398 53.3442 33.3253C53.8683 33.6065 54.4948 33.7472 55.2235 33.7472C55.9521 33.7472 56.5786 33.6065 57.1027 33.3253C57.6269 33.0398 58.0274 32.6499 58.3044 32.1555C58.5857 31.657 58.7263 31.0881 58.7263 30.4489V21.9091ZM64.1972 35V21.9091H68.7739C69.6858 21.9091 70.4379 22.0668 71.0303 22.3821C71.6226 22.6932 72.0637 23.1129 72.3534 23.6413C72.6432 24.1655 72.7881 24.7472 72.7881 25.3864C72.7881 25.9489 72.6879 26.4134 72.4877 26.7798C72.2916 27.1463 72.0317 27.4361 71.7078 27.6491C71.3882 27.8622 71.0409 28.0199 70.6659 28.1222V28.25C71.0665 28.2756 71.4692 28.4162 71.874 28.6719C72.2789 28.9276 72.6176 29.294 72.8904 29.7713C73.1631 30.2486 73.2995 30.8324 73.2995 31.5227C73.2995 32.179 73.1503 32.7692 72.852 33.2933C72.5537 33.8175 72.0828 34.233 71.4394 34.5398C70.7959 34.8466 69.9585 35 68.9273 35H64.1972ZM65.7824 33.5938H68.9273C69.9628 33.5938 70.6979 33.3935 71.1325 32.9929C71.5715 32.5881 71.7909 32.098 71.7909 31.5227C71.7909 31.0795 71.678 30.6705 71.4522 30.2955C71.2263 29.9162 70.9046 29.6136 70.487 29.3878C70.0693 29.1577 69.575 29.0426 69.004 29.0426H65.7824V33.5938ZM65.7824 27.6619H68.7227C69.2 27.6619 69.6304 27.5682 70.0139 27.3807C70.4017 27.1932 70.7085 26.929 70.9344 26.5881C71.1645 26.2472 71.2796 25.8466 71.2796 25.3864C71.2796 24.8111 71.0793 24.3232 70.6787 23.9226C70.2781 23.5178 69.6432 23.3153 68.7739 23.3153H65.7824V27.6619ZM76.6242 21.9091H78.5163L82.9651 32.7756H83.1185L87.5674 21.9091H89.4594V35H87.9765V25.054H87.8486L83.7577 35H82.3259L78.235 25.054H78.1072V35H76.6242V21.9091ZM94.9431 21.9091V35H93.3579V21.9091H94.9431ZM98.1256 23.3153V21.9091H107.944V23.3153H103.827V35H102.242V23.3153H98.1256ZM116.177 23.3153V21.9091H125.995V23.3153H121.879V35H120.293V23.3153H116.177ZM129.162 35V21.9091H130.747V27.7386H137.727V21.9091H139.312V35H137.727V29.1449H130.747V35H129.162ZM143.206 35V21.9091H151.106V23.3153H144.791V27.7386H150.697V29.1449H144.791V33.5938H151.209V35H143.206ZM160.466 35V21.9091H168.316V23.3153H162.051V27.7386H167.728V29.1449H162.051V35H160.466ZM182.796 28.4545C182.796 29.8352 182.547 31.0284 182.048 32.0341C181.55 33.0398 180.866 33.8153 179.996 34.3608C179.127 34.9062 178.134 35.179 177.018 35.179C175.901 35.179 174.908 34.9062 174.039 34.3608C173.17 33.8153 172.486 33.0398 171.987 32.0341C171.489 31.0284 171.239 29.8352 171.239 28.4545C171.239 27.0739 171.489 25.8807 171.987 24.875C172.486 23.8693 173.17 23.0938 174.039 22.5483C174.908 22.0028 175.901 21.7301 177.018 21.7301C178.134 21.7301 179.127 22.0028 179.996 22.5483C180.866 23.0938 181.55 23.8693 182.048 24.875C182.547 25.8807 182.796 27.0739 182.796 28.4545ZM181.262 28.4545C181.262 27.321 181.072 26.3643 180.693 25.5845C180.318 24.8047 179.809 24.2145 179.165 23.8139C178.526 23.4134 177.81 23.2131 177.018 23.2131C176.225 23.2131 175.507 23.4134 174.864 23.8139C174.224 24.2145 173.715 24.8047 173.336 25.5845C172.961 26.3643 172.773 27.321 172.773 28.4545C172.773 29.5881 172.961 30.5447 173.336 31.3246C173.715 32.1044 174.224 32.6946 174.864 33.0952C175.507 33.4957 176.225 33.696 177.018 33.696C177.81 33.696 178.526 33.4957 179.165 33.0952C179.809 32.6946 180.318 32.1044 180.693 31.3246C181.072 30.5447 181.262 29.5881 181.262 28.4545ZM186.182 35V21.9091H190.605C191.628 21.9091 192.467 22.0838 193.123 22.4332C193.78 22.7784 194.265 23.2536 194.581 23.8587C194.896 24.4638 195.054 25.152 195.054 25.9233C195.054 26.6946 194.896 27.3786 194.581 27.9751C194.265 28.5717 193.782 29.0405 193.13 29.3814C192.478 29.718 191.645 29.8864 190.63 29.8864H187.051V28.4545H190.579C191.278 28.4545 191.841 28.3523 192.267 28.1477C192.697 27.9432 193.008 27.6534 193.2 27.2784C193.396 26.8991 193.494 26.4474 193.494 25.9233C193.494 25.3991 193.396 24.9411 193.2 24.549C193.004 24.157 192.691 23.8544 192.26 23.6413C191.83 23.424 191.261 23.3153 190.554 23.3153H187.767V35H186.182ZM192.344 29.1193L195.565 35H193.724L190.554 29.1193H192.344ZM198.415 21.9091H200.307L204.756 32.7756H204.91L209.358 21.9091H211.251V35H209.768V25.054H209.64L205.549 35H204.117L200.026 25.054H199.898V35H198.415V21.9091ZM231.977 28.4545C231.977 29.8352 231.728 31.0284 231.229 32.0341C230.73 33.0398 230.047 33.8153 229.177 34.3608C228.308 34.9062 227.315 35.179 226.199 35.179C225.082 35.179 224.089 34.9062 223.22 34.3608C222.351 33.8153 221.667 33.0398 221.168 32.0341C220.669 31.0284 220.42 29.8352 220.42 28.4545C220.42 27.0739 220.669 25.8807 221.168 24.875C221.667 23.8693 222.351 23.0938 223.22 22.5483C224.089 22.0028 225.082 21.7301 226.199 21.7301C227.315 21.7301 228.308 22.0028 229.177 22.5483C230.047 23.0938 230.73 23.8693 231.229 24.875C231.728 25.8807 231.977 27.0739 231.977 28.4545ZM230.443 28.4545C230.443 27.321 230.253 26.3643 229.874 25.5845C229.499 24.8047 228.99 24.2145 228.346 23.8139C227.707 23.4134 226.991 23.2131 226.199 23.2131C225.406 23.2131 224.688 23.4134 224.044 23.8139C223.405 24.2145 222.896 24.8047 222.517 25.5845C222.142 26.3643 221.954 27.321 221.954 28.4545C221.954 29.5881 222.142 30.5447 222.517 31.3246C222.896 32.1044 223.405 32.6946 224.044 33.0952C224.688 33.4957 225.406 33.696 226.199 33.696C226.991 33.696 227.707 33.4957 228.346 33.0952C228.99 32.6946 229.499 32.1044 229.874 31.3246C230.253 30.5447 230.443 29.5881 230.443 28.4545ZM245.743 21.9091V35H244.209L237.075 24.7216H236.948V35H235.362V21.9091H236.897L244.056 32.2131H244.183V21.9091H245.743ZM254.293 21.9091H256.108L259.739 28.0199H259.892L263.523 21.9091H265.338L260.608 29.6051V35H259.023V29.6051L254.293 21.9091ZM278.539 28.4545C278.539 29.8352 278.289 31.0284 277.791 32.0341C277.292 33.0398 276.608 33.8153 275.739 34.3608C274.87 34.9062 273.877 35.179 272.76 35.179C271.644 35.179 270.651 34.9062 269.781 34.3608C268.912 33.8153 268.228 33.0398 267.73 32.0341C267.231 31.0284 266.982 29.8352 266.982 28.4545C266.982 27.0739 267.231 25.8807 267.73 24.875C268.228 23.8693 268.912 23.0938 269.781 22.5483C270.651 22.0028 271.644 21.7301 272.76 21.7301C273.877 21.7301 274.87 22.0028 275.739 22.5483C276.608 23.0938 277.292 23.8693 277.791 24.875C278.289 25.8807 278.539 27.0739 278.539 28.4545ZM277.004 28.4545C277.004 27.321 276.815 26.3643 276.436 25.5845C276.061 24.8047 275.551 24.2145 274.908 23.8139C274.269 23.4134 273.553 23.2131 272.76 23.2131C271.968 23.2131 271.25 23.4134 270.606 23.8139C269.967 24.2145 269.458 24.8047 269.078 25.5845C268.703 26.3643 268.516 27.321 268.516 28.4545C268.516 29.5881 268.703 30.5447 269.078 31.3246C269.458 32.1044 269.967 32.6946 270.606 33.0952C271.25 33.4957 271.968 33.696 272.76 33.696C273.553 33.696 274.269 33.4957 274.908 33.0952C275.551 32.6946 276.061 32.1044 276.436 31.3246C276.815 30.5447 277.004 29.5881 277.004 28.4545ZM290.515 21.9091H292.1V30.5767C292.1 31.4716 291.889 32.2706 291.467 32.9737C291.05 33.6726 290.46 34.2244 289.697 34.6293C288.934 35.0298 288.039 35.2301 287.012 35.2301C285.985 35.2301 285.09 35.0298 284.327 34.6293C283.565 34.2244 282.972 33.6726 282.55 32.9737C282.133 32.2706 281.924 31.4716 281.924 30.5767V21.9091H283.509V30.4489C283.509 31.0881 283.65 31.657 283.931 32.1555C284.212 32.6499 284.613 33.0398 285.133 33.3253C285.657 33.6065 286.283 33.7472 287.012 33.7472C287.741 33.7472 288.367 33.6065 288.891 33.3253C289.416 33.0398 289.816 32.6499 290.093 32.1555C290.374 31.657 290.515 31.0881 290.515 30.4489V21.9091ZM295.986 35V21.9091H300.409C301.432 21.9091 302.271 22.0838 302.928 22.4332C303.584 22.7784 304.07 23.2536 304.385 23.8587C304.7 24.4638 304.858 25.152 304.858 25.9233C304.858 26.6946 304.7 27.3786 304.385 27.9751C304.07 28.5717 303.586 29.0405 302.934 29.3814C302.282 29.718 301.449 29.8864 300.435 29.8864H296.855V28.4545H300.384C301.082 28.4545 301.645 28.3523 302.071 28.1477C302.501 27.9432 302.813 27.6534 303.004 27.2784C303.2 26.8991 303.298 26.4474 303.298 25.9233C303.298 25.3991 303.2 24.9411 303.004 24.549C302.808 24.157 302.495 23.8544 302.065 23.6413C301.634 23.424 301.065 23.3153 300.358 23.3153H297.571V35H295.986ZM302.148 29.1193L305.369 35H303.528L300.358 29.1193H302.148ZM314.002 35V21.9091H318.425C319.448 21.9091 320.288 22.0838 320.944 22.4332C321.6 22.7784 322.086 23.2536 322.401 23.8587C322.717 24.4638 322.874 25.152 322.874 25.9233C322.874 26.6946 322.717 27.3786 322.401 27.9751C322.086 28.5717 321.602 29.0405 320.95 29.3814C320.298 29.718 319.465 29.8864 318.451 29.8864H314.871V28.4545H318.4C319.099 28.4545 319.661 28.3523 320.087 28.1477C320.518 27.9432 320.829 27.6534 321.021 27.2784C321.217 26.8991 321.315 26.4474 321.315 25.9233C321.315 25.3991 321.217 24.9411 321.021 24.549C320.824 24.157 320.511 23.8544 320.081 23.6413C319.65 23.424 319.082 23.3153 318.374 23.3153H315.587V35H314.002ZM320.164 29.1193L323.386 35H321.545L318.374 29.1193H320.164ZM327.821 21.9091V35H326.236V21.9091H327.821ZM340.668 26C340.528 25.5696 340.342 25.1839 340.112 24.843C339.886 24.4979 339.616 24.2038 339.3 23.9609C338.989 23.718 338.636 23.5327 338.239 23.4048C337.843 23.277 337.408 23.2131 336.935 23.2131C336.16 23.2131 335.454 23.4134 334.82 23.8139C334.185 24.2145 333.68 24.8047 333.305 25.5845C332.93 26.3643 332.742 27.321 332.742 28.4545C332.742 29.5881 332.932 30.5447 333.311 31.3246C333.69 32.1044 334.204 32.6946 334.851 33.0952C335.499 33.4957 336.228 33.696 337.038 33.696C337.788 33.696 338.448 33.5362 339.019 33.2166C339.594 32.8928 340.042 32.4368 340.361 31.8487C340.685 31.2564 340.847 30.5597 340.847 29.7585L341.333 29.8608H337.396V28.4545H342.381V29.8608C342.381 30.9389 342.151 31.8764 341.691 32.6733C341.235 33.4702 340.604 34.0881 339.799 34.527C338.998 34.9616 338.077 35.179 337.038 35.179C335.878 35.179 334.86 34.9062 333.982 34.3608C333.109 33.8153 332.427 33.0398 331.937 32.0341C331.451 31.0284 331.208 29.8352 331.208 28.4545C331.208 27.419 331.347 26.4879 331.624 25.6612C331.905 24.8303 332.301 24.1229 332.812 23.5391C333.324 22.9553 333.929 22.5078 334.628 22.1967C335.327 21.8857 336.096 21.7301 336.935 21.7301C337.626 21.7301 338.269 21.8345 338.866 22.0433C339.467 22.2479 340.001 22.5398 340.47 22.919C340.943 23.294 341.337 23.7436 341.653 24.2678C341.968 24.7876 342.185 25.3651 342.305 26H340.668ZM345.816 35V21.9091H347.402V27.7386H354.382V21.9091H355.967V35H354.382V29.1449H347.402V35H345.816ZM359.145 23.3153V21.9091H368.963V23.3153H364.846V35H363.261V23.3153H359.145Z" fill="#114DC8"/>
    <g clip-path="url(#clip0_20_5071)">
        <path d="M385.088 28L411.088 28" stroke="#114DC8" stroke-width="2" stroke-linecap="round" stroke-linejoin="round"/>
        <path d="M402.088 19L411.088 28L402.088 37" stroke="#114DC8" stroke-width="2" stroke-linecap="round" stroke-linejoin="round"/>
    </g>
    <defs>
        <clipPath id="clip0_20_5071">
            <rect width="32" height="32" fill="white" transform="translate(382.088 12)"/>
        </clipPath>
    </defs>
</svg>
