<svg width="13" height="13" viewBox="0 0 13 13" fill="none" xmlns="http://www.w3.org/2000/svg">
    <g clip-path="url(#clip0_11_3833)">
        <path d="M10.0625 6.30062C10.0104 6.19645 9.95833 6.09229 9.85417 5.98812L4.85417 0.988118C4.69792 0.831868 4.48958 0.779785 4.28125 0.779785C4.07292 0.779785 3.91667 0.883952 3.76042 1.0402C3.60417 1.19645 3.5 1.3527 3.5 1.56104C3.5 1.76937 3.60417 1.92562 3.76042 2.08187L7.61458 5.98812C7.71875 6.09229 7.77083 6.19645 7.82292 6.30062C7.875 6.40479 7.92708 6.50895 7.92708 6.6652C7.92708 6.76937 7.92708 6.87353 7.82292 6.9777C7.77083 7.08187 7.71875 7.18603 7.61458 7.2902L6.88542 8.01937L3.76042 11.1965C3.60417 11.3527 3.5 11.509 3.55208 11.7173C3.55208 11.9256 3.65625 12.0819 3.8125 12.2381C3.96875 12.3944 4.125 12.4985 4.33333 12.4985C4.54167 12.4985 4.69792 12.4465 4.85417 12.2381L9.80208 7.2902C9.90625 7.18603 9.95833 7.08187 10.0104 6.9777C10.0625 6.87353 10.1146 6.76937 10.1146 6.6652C10.1146 6.56103 10.1146 6.40479 10.0625 6.30062Z" fill="white"/>
    </g>
    <defs>
        <clipPath id="clip0_11_3833">
            <rect width="12" height="12" fill="white" transform="translate(0.5 0.779785)"/>
        </clipPath>
    </defs>
</svg>
