<svg width="84" height="77" viewBox="0 0 84 77" fill="none" xmlns="http://www.w3.org/2000/svg">
<path d="M2 47.1895H81.9527" stroke="#114DC8" stroke-width="3" stroke-linecap="round" stroke-linejoin="round"/>
<path d="M33.2852 61.0952C33.2852 61.0952 34.0152 75 26.3328 75H57.6186C49.9362 75 50.6662 61.0952 50.6662 61.0952" stroke="#0A1216" stroke-width="3" stroke-linecap="round" stroke-linejoin="round"/>
<path d="M76.7384 2H7.2143C4.33452 2 2 4.33452 2 7.2143V55.8811C2 58.7609 4.33452 61.0954 7.2143 61.0954H76.7384C79.6181 61.0954 81.9527 58.7609 81.9527 55.8811V7.2143C81.9527 4.33452 79.6181 2 76.7384 2Z" stroke="#0A1216" stroke-width="3" stroke-linecap="round" stroke-linejoin="round"/>
<path d="M41.5 57.4053C42.8807 57.4053 44 56.286 44 54.9053C44 53.5246 42.8807 52.4053 41.5 52.4053C40.1193 52.4053 39 53.5246 39 54.9053C39 56.286 40.1193 57.4053 41.5 57.4053Z" fill="#114DC8"/>
</svg>
