<svg width="100" height="101" viewBox="0 0 100 101" fill="none" xmlns="http://www.w3.org/2000/svg">
<path d="M10 59.1895H89.9527" stroke="#114DC8" stroke-width="3" stroke-linecap="round" stroke-linejoin="round"/>
<path d="M41.2852 73.0952C41.2852 73.0952 42.0152 87 34.3328 87H65.6186C57.9362 87 58.6662 73.0952 58.6662 73.0952" stroke="#0A1216" stroke-width="3" stroke-linecap="round" stroke-linejoin="round"/>
<path d="M84.7384 14H15.2143C12.3345 14 10 16.3345 10 19.2143V67.8811C10 70.7609 12.3345 73.0954 15.2143 73.0954H84.7384C87.6181 73.0954 89.9527 70.7609 89.9527 67.8811V19.2143C89.9527 16.3345 87.6181 14 84.7384 14Z" stroke="#0A1216" stroke-width="3" stroke-linecap="round" stroke-linejoin="round"/>
<path d="M49.5 69.4053C50.8807 69.4053 52 68.286 52 66.9053C52 65.5246 50.8807 64.4053 49.5 64.4053C48.1193 64.4053 47 65.5246 47 66.9053C47 68.286 48.1193 69.4053 49.5 69.4053Z" fill="#114DC8"/>
</svg>
