<svg width="100" height="101" viewBox="0 0 100 101" fill="none" xmlns="http://www.w3.org/2000/svg">
    <g clip-path="url(#clip0_19_4082)">
        <path d="M13.125 57.6157C11.4978 48.8331 13.059 39.758 17.5276 32.024C21.9961 24.29 29.0785 18.405 37.5 15.4282V43.5532L13.125 57.6157Z" stroke="#114DC8" stroke-width="3" stroke-linecap="round" stroke-linejoin="round"/>
        <path d="M50 50.9438V13.2798C56.5701 13.2808 63.0247 15.0079 68.7173 18.2882C74.4099 21.5685 79.1408 26.2869 82.4362 31.9708C85.7316 37.6547 87.4758 44.1047 87.4942 50.6748C87.5126 57.2449 85.8046 63.7045 82.541 69.4068C79.2775 75.1091 74.5731 79.8539 68.899 83.166C63.2248 86.4781 56.78 88.2414 50.21 88.2792C43.64 88.3169 37.1753 86.6279 31.4634 83.3812C25.7516 80.1345 20.9929 75.4442 17.6641 69.7798L82.4766 32.0298" stroke="#0A1216" stroke-width="3" stroke-linecap="round" stroke-linejoin="round"/>
    </g>
    <defs>
        <clipPath id="clip0_19_4082">
            <rect width="100" height="100" fill="white" transform="translate(0 0.779785)"/>
        </clipPath>
    </defs>
</svg>
