<svg width="100" height="101" viewBox="0 0 100 101" fill="none" xmlns="http://www.w3.org/2000/svg">
    <g clip-path="url(#clip0_19_4078)">
        <path d="M37.5 69.5298H11.7188C11.0971 69.5298 10.501 69.2829 10.0615 68.8433C9.62193 68.4038 9.375 67.8076 9.375 67.186V41.4048C9.375 33.9456 12.3382 26.7919 17.6126 21.5174C22.8871 16.2429 30.0408 13.2798 37.5 13.2798C44.9592 13.2798 52.1129 16.2429 57.3874 21.5174C62.6618 26.7919 65.625 33.9456 65.625 41.4048C65.625 48.864 62.6618 56.0177 57.3874 61.2922C52.1129 66.5666 44.9592 69.5298 37.5 69.5298Z" stroke="#0A1216" stroke-width="3" stroke-linecap="round" stroke-linejoin="round"/>
        <path d="M35.9766 69.5298C37.9157 75.0144 41.5077 79.7627 46.2579 83.1208C51.0081 86.4788 56.6827 88.2812 62.5 88.2798H88.2812C88.9028 88.2798 89.499 88.0329 89.9385 87.5933C90.3781 87.1538 90.625 86.5576 90.625 85.936V60.1548C90.6248 52.9621 87.8689 46.0429 82.924 40.8197C77.9791 35.5965 71.2209 32.4664 64.0391 32.0728" stroke="#114DC8" stroke-width="3" stroke-linecap="round" stroke-linejoin="round"/>
    </g>
    <defs>
        <clipPath id="clip0_19_4078">
            <rect width="100" height="100" fill="white" transform="translate(0 0.779785)"/>
        </clipPath>
    </defs>
</svg>
