<svg width="100" height="101" viewBox="0 0 100 101" fill="none" xmlns="http://www.w3.org/2000/svg">
    <g clip-path="url(#clip0_19_4090)">
        <path d="M31.25 91.4048C34.7018 91.4048 37.5 88.6066 37.5 85.1548C37.5 81.703 34.7018 78.9048 31.25 78.9048C27.7982 78.9048 25 81.703 25 85.1548C25 88.6066 27.7982 91.4048 31.25 91.4048Z" fill="#0A1216"/>
        <path d="M71.875 91.4048C75.3268 91.4048 78.125 88.6066 78.125 85.1548C78.125 81.703 75.3268 78.9048 71.875 78.9048C68.4232 78.9048 65.625 81.703 65.625 85.1548C65.625 88.6066 68.4232 91.4048 71.875 91.4048Z" fill="#0A1216"/>
        <path d="M16.5195 28.9048H87.5L76.3594 65.1196C75.9658 66.3973 75.173 67.5151 74.0973 68.3088C73.0216 69.1026 71.7197 69.5305 70.3828 69.5298H32.8398C31.4815 69.5304 30.16 69.0884 29.0752 68.2708C27.9905 67.4532 27.2017 66.3045 26.8281 64.9985L12.6992 15.5454C12.5125 14.8927 12.1184 14.3186 11.5764 13.9099C11.0345 13.5011 10.3741 13.2799 9.69531 13.2798H3.125" stroke="#114DC8" stroke-width="3" stroke-linecap="round" stroke-linejoin="round"/>
    </g>
    <defs>
        <clipPath id="clip0_19_4090">
            <rect width="100" height="100" fill="white" transform="translate(0 0.779785)"/>
        </clipPath>
    </defs>
</svg>
