<svg width="100" height="101" viewBox="0 0 100 101" fill="none" xmlns="http://www.w3.org/2000/svg">
    <g clip-path="url(#clip0_19_4086)">
        <path d="M9.375 85.1548H89.375" stroke="#0A1216" stroke-width="3" stroke-linecap="round" stroke-linejoin="round"/>
        <path d="M34.3749 46.2914L22.9101 35.1547C22.5201 34.8038 22.2248 34.3604 22.0513 33.8653C21.8778 33.3702 21.8317 32.8394 21.9173 32.3218C22.0029 31.8042 22.2175 31.3165 22.5412 30.9036C22.8649 30.4908 23.2873 30.1661 23.7695 29.9594L26.5624 28.9047L49.0351 37.1743L70.457 24.3813C73.0284 22.868 76.0564 22.3245 78.9936 22.8489C81.9309 23.3733 84.5837 24.9311 86.4726 27.2407L93.7499 36.5766L36.1679 70.9516C33.8418 72.306 31.1407 72.8734 28.4662 72.5693C25.7918 72.2653 23.2869 71.1061 21.3242 69.2641L7.23823 55.4672C6.85939 55.1121 6.57501 54.6682 6.41079 54.1756C6.24656 53.683 6.20766 53.1573 6.29761 52.6459C6.38756 52.1345 6.60352 51.6536 6.92597 51.2466C7.24843 50.8396 7.66721 50.5194 8.14448 50.3149L9.37495 49.7133L21.7929 53.9047L34.3749 46.2914Z" stroke="#114DC8" stroke-width="3" stroke-linecap="round" stroke-linejoin="round"/>
    </g>
    <defs>
        <clipPath id="clip0_19_4086">
            <rect width="100" height="100" fill="white" transform="translate(0 0.779785)"/>
        </clipPath>
    </defs>
</svg>
