<svg width="100" height="101" viewBox="0 0 100 101" fill="none" xmlns="http://www.w3.org/2000/svg">
<path d="M84.4277 22.255C84.422 21.8962 84.3059 21.5478 84.0951 21.2574C83.8843 20.967 83.5891 20.7486 83.2497 20.632L50.0913 9.28833C49.7245 9.15715 49.3236 9.15715 48.9569 9.28833L15.7985 20.632C15.4591 20.7486 15.1639 20.967 14.9531 21.2574C14.7423 21.5478 14.6261 21.8962 14.6205 22.255L14.5332 27.4033C14.2714 43.2583 15.5542 54.6368 18.4686 62.2022C20.6538 67.8986 23.9491 73.104 28.1631 77.5161C33.2041 82.6428 39.1778 86.7596 45.7632 89.6451L48.7998 91.0326C49.0272 91.1363 49.2742 91.1899 49.5241 91.1899C49.774 91.1899 50.021 91.1363 50.2483 91.0326L53.2849 89.6451C59.8704 86.7596 65.8441 82.6428 70.8851 77.5161C75.1031 73.1022 78.4015 67.8937 80.5883 62.1935C83.5027 54.6281 84.7854 43.2495 84.5237 27.3946L84.4277 22.255ZM77.3335 60.9369C75.3143 66.2094 72.2649 71.0268 68.3633 75.1078C63.6251 79.9007 58.0197 83.7501 51.8452 86.4515L49.5241 87.5247L47.203 86.4689C41.0284 83.7675 35.4231 79.9181 30.6849 75.1252C26.7813 71.0391 23.7318 66.2157 21.7146 60.9369C18.9834 53.7991 17.7531 42.8481 18.0149 27.4906L18.0759 23.5639L49.5241 12.7525L80.9373 23.529L80.9984 27.4557C81.2951 42.8481 80.0647 53.7991 77.3335 60.9369Z" fill="#0A1216" stroke="white"/>
<path d="M75.7017 28.3612C75.6979 28.0009 75.5826 27.6506 75.3716 27.3584C75.1607 27.0662 74.8645 26.8465 74.5237 26.7294L50.0912 18.3526C49.723 18.2301 49.3251 18.2301 48.9569 18.3526L24.5243 26.7294C24.1836 26.8465 23.8874 27.0662 23.6764 27.3584C23.4655 27.6506 23.3502 28.0009 23.3463 28.3612V28.527C23.1107 42.3663 24.2189 52.9071 26.5837 59.0153C28.3131 63.5422 30.9297 67.6778 34.2799 71.1792C38.4102 75.3775 43.3025 78.7506 48.6951 81.118L48.7998 81.1616C49.0249 81.2727 49.273 81.3295 49.524 81.3274C49.7739 81.3275 50.0209 81.2739 50.2483 81.1703L50.353 81.118C55.749 78.7629 60.6471 75.4017 64.7856 71.2141C68.1358 67.7127 70.7525 63.5771 72.4819 59.0502C74.8291 52.942 75.9722 42.4012 75.7192 28.5706L75.7017 28.3612ZM69.2009 57.7675C67.6287 61.8603 65.2555 65.5982 62.2202 68.7621C58.57 72.4804 54.2661 75.4945 49.524 77.6538C44.7692 75.5096 40.4504 72.5072 36.7842 68.797C33.749 65.6331 31.3757 61.8952 29.8035 57.8024C27.7093 52.2527 26.6447 42.5495 26.8367 29.6701L49.524 21.8866L72.2114 29.6701C72.4033 42.5408 71.3388 52.2527 69.2184 57.8024L69.2009 57.7675Z" fill="#114DC8" stroke="white"/>
<path d="M57.7176 41.7404L45.2745 54.1836L41.3304 50.2395C41.1682 50.0773 40.9757 49.9487 40.7639 49.8609C40.552 49.7732 40.3249 49.728 40.0956 49.728C39.8663 49.728 39.6393 49.7732 39.4274 49.8609C39.2156 49.9487 39.0231 50.0773 38.8609 50.2395C38.6988 50.4016 38.5702 50.5941 38.4824 50.806C38.3947 51.0178 38.3495 51.2449 38.3495 51.4742C38.3495 51.7035 38.3947 51.9305 38.4824 52.1424C38.5702 52.3543 38.6988 52.5467 38.8609 52.7089L44.0354 57.8834C44.1977 58.0467 44.3908 58.1762 44.6035 58.2646C44.8161 58.353 45.0442 58.3984 45.2745 58.3982C45.7366 58.3962 46.179 58.2111 46.5048 57.8834L60.187 44.2099C60.3492 44.0477 60.4778 43.8552 60.5655 43.6434C60.6533 43.4315 60.6985 43.2045 60.6985 42.9752C60.6985 42.7458 60.6533 42.5188 60.5655 42.3069C60.4778 42.0951 60.3492 41.9026 60.187 41.7404C60.0249 41.5783 59.8324 41.4497 59.6205 41.3619C59.4087 41.2742 59.1816 41.229 58.9523 41.229C58.723 41.229 58.4959 41.2742 58.2841 41.3619C58.0722 41.4497 57.8797 41.5783 57.7176 41.7404Z" fill="#114DC8" stroke="white"/>
</svg>
