<svg width="72" height="84" viewBox="0 0 72 84" fill="none" xmlns="http://www.w3.org/2000/svg">
<path d="M70.4277 14.255C70.422 13.8962 70.3059 13.5478 70.0951 13.2574C69.8843 12.967 69.5891 12.7486 69.2497 12.632L36.0913 1.28833C35.7245 1.15715 35.3236 1.15715 34.9569 1.28833L1.79848 12.632C1.45908 12.7486 1.16387 12.967 0.953072 13.2574C0.742274 13.5478 0.626138 13.8962 0.620483 14.255L0.533224 19.4033C0.271447 35.2583 1.55415 46.6368 4.4686 54.2022C6.65384 59.8986 9.94913 65.104 14.1631 69.5161C19.2041 74.6428 25.1778 78.7596 31.7632 81.6451L34.7998 83.0326C35.0272 83.1363 35.2742 83.1899 35.5241 83.1899C35.774 83.1899 36.021 83.1363 36.2483 83.0326L39.2849 81.6451C45.8704 78.7596 51.8441 74.6428 56.8851 69.5161C61.1031 65.1022 64.4015 59.8937 66.5883 54.1935C69.5027 46.6281 70.7854 35.2495 70.5237 19.3946L70.4277 14.255ZM63.3335 52.9369C61.3143 58.2094 58.2649 63.0268 54.3633 67.1078C49.6251 71.9007 44.0197 75.7501 37.8452 78.4515L35.5241 79.5247L33.203 78.4689C27.0284 75.7675 21.4231 71.9181 16.6849 67.1252C12.7813 63.0391 9.73179 58.2157 7.71464 52.9369C4.98343 45.7991 3.75308 34.8481 4.01486 19.4906L4.07594 15.5639L35.5241 4.75251L66.9373 15.529L66.9984 19.4557C67.2951 34.8481 66.0647 45.7991 63.3335 52.9369Z" fill="#0A1216" stroke="white"/>
<path d="M61.7017 20.3612C61.6979 20.0009 61.5826 19.6506 61.3716 19.3584C61.1607 19.0662 60.8645 18.8465 60.5237 18.7294L36.0912 10.3526C35.723 10.2301 35.3251 10.2301 34.9569 10.3526L10.5243 18.7294C10.1836 18.8465 9.88737 19.0662 9.67645 19.3584C9.46552 19.6506 9.35021 20.0009 9.34635 20.3612V20.527C9.11075 34.3663 10.2189 44.9071 12.5837 51.0153C14.3131 55.5422 16.9297 59.6778 20.2799 63.1792C24.4102 67.3775 29.3025 70.7506 34.6951 73.118L34.7998 73.1616C35.0249 73.2727 35.273 73.3295 35.524 73.3274C35.7739 73.3275 36.0209 73.2739 36.2483 73.1703L36.353 73.118C41.749 70.7629 46.6471 67.4017 50.7856 63.2141C54.1358 59.7127 56.7525 55.5771 58.4819 51.0502C60.8291 44.942 61.9722 34.4012 61.7192 20.5706L61.7017 20.3612ZM55.2009 49.7675C53.6287 53.8603 51.2555 57.5982 48.2202 60.7621C44.57 64.4804 40.2661 67.4945 35.524 69.6538C30.7692 67.5096 26.4504 64.5072 22.7842 60.797C19.749 57.6331 17.3757 53.8952 15.8035 49.8024C13.7093 44.2527 12.6447 34.5495 12.8367 21.6701L35.524 13.8866L58.2114 21.6701C58.4033 34.5408 57.3388 44.2527 55.2184 49.8024L55.2009 49.7675Z" fill="#114DC8" stroke="white"/>
<path d="M43.7176 33.7404L31.2745 46.1836L27.3304 42.2395C27.1682 42.0773 26.9757 41.9487 26.7639 41.8609C26.552 41.7732 26.3249 41.728 26.0956 41.728C25.8663 41.728 25.6393 41.7732 25.4274 41.8609C25.2156 41.9487 25.0231 42.0773 24.8609 42.2395C24.6988 42.4016 24.5702 42.5941 24.4824 42.806C24.3947 43.0178 24.3495 43.2449 24.3495 43.4742C24.3495 43.7035 24.3947 43.9305 24.4824 44.1424C24.5702 44.3543 24.6988 44.5467 24.8609 44.7089L30.0354 49.8834C30.1977 50.0467 30.3908 50.1762 30.6035 50.2646C30.8161 50.353 31.0442 50.3984 31.2745 50.3982C31.7366 50.3962 32.179 50.2111 32.5048 49.8834L46.187 36.2099C46.3492 36.0477 46.4778 35.8552 46.5655 35.6434C46.6533 35.4315 46.6985 35.2045 46.6985 34.9752C46.6985 34.7458 46.6533 34.5188 46.5655 34.3069C46.4778 34.0951 46.3492 33.9026 46.187 33.7404C46.0249 33.5783 45.8324 33.4497 45.6205 33.3619C45.4087 33.2742 45.1816 33.229 44.9523 33.229C44.723 33.229 44.4959 33.2742 44.2841 33.3619C44.0722 33.4497 43.8797 33.5783 43.7176 33.7404Z" fill="#114DC8" stroke="white"/>
</svg>
