<svg width="100" height="101" viewBox="0 0 100 101" fill="none" xmlns="http://www.w3.org/2000/svg">
<path d="M24.7005 22.8138C25.1107 22.8138 25.5347 22.6633 25.8629 22.3625C32.1262 16.5915 40.263 13.4188 48.7827 13.4188C57.2887 13.4188 65.4255 16.5915 71.6888 22.3625C72.3862 23.0052 73.4666 22.9642 74.1093 22.2667C74.7521 21.5693 74.6974 20.489 74.0136 19.8462C67.1212 13.5009 58.1639 10 48.7827 10C39.4014 10 30.4441 13.5009 23.5517 19.8599C22.8543 20.5026 22.8133 21.583 23.456 22.2804C23.7842 22.636 24.2492 22.8138 24.7005 22.8138Z" fill="#0A1216"/>
<path d="M67.3534 29.5976C67.9961 28.9002 67.9414 27.8198 67.2576 27.1771C62.2115 22.5275 55.6473 19.9702 48.7823 19.9702C41.9173 19.9702 35.3532 22.5275 30.307 27.1908C29.6095 27.8335 29.5685 28.9139 30.2113 29.6113C30.5531 29.9805 31.0044 30.1583 31.4694 30.1583C31.8796 30.1583 32.3036 30.0079 32.6318 29.707C37.0489 25.6318 42.7789 23.4027 48.7823 23.4027C54.7858 23.4027 60.5157 25.6455 64.9328 29.707C65.6303 30.3361 66.7106 30.2951 67.3534 29.5976Z" fill="#0A1216"/>
<path d="M60.4889 34.5221C57.2889 31.5683 53.1316 29.9409 48.7692 29.9409C44.4067 29.9409 40.2494 31.5683 37.0494 34.5221C36.352 35.1649 36.311 36.2452 36.9537 36.9427C37.5964 37.6401 38.6768 37.6811 39.3742 37.0384C41.9452 34.6726 45.2819 33.3734 48.7692 33.3734C52.2564 33.3734 55.5931 34.6726 58.1641 37.0384C58.4923 37.3393 58.9025 37.4897 59.3265 37.4897C59.7914 37.4897 60.2427 37.2982 60.5846 36.9427C61.2274 36.2316 61.1863 35.1512 60.4889 34.5221Z" fill="#0A1216"/>
<path d="M58.1771 62.9765C55.6062 65.3423 52.2694 66.6415 48.7822 66.6415C45.295 66.6415 41.9582 65.3423 39.3873 62.9765C38.6898 62.3338 37.6095 62.3748 36.9668 63.0722C36.324 63.7697 36.365 64.85 37.0625 65.4928C40.2625 68.4466 44.4335 70.074 48.7822 70.074C53.131 70.074 57.3019 68.4466 60.5019 65.4928C61.1994 64.85 61.2404 63.7697 60.5977 63.0722C59.9549 62.3748 58.8746 62.3338 58.1771 62.9765Z" fill="#0A1216"/>
<path d="M57.3024 49.9987C57.3024 45.2944 53.4733 41.4653 48.769 41.4653C44.0647 41.4653 40.2356 45.2944 40.2356 49.9987C40.2356 54.703 44.0647 58.5321 48.769 58.5321C53.4733 58.5321 57.3024 54.703 57.3024 49.9987ZM43.6544 49.9987C43.6544 47.1816 45.9519 44.8842 48.769 44.8842C51.5861 44.8842 53.8835 47.1816 53.8835 49.9987C53.8835 52.8158 51.5861 55.1133 48.769 55.1133C45.9519 55.1133 43.6544 52.8158 43.6544 49.9987Z" fill="#114DC8"/>
<path d="M32.2079 56.8227V43.1747C32.2079 42.2311 31.4421 41.4653 30.4985 41.4653C29.5549 41.4653 28.7891 42.2311 28.7891 43.1747V56.8227C28.7891 57.7663 29.5549 58.5321 30.4985 58.5321C31.4421 58.5321 32.2079 57.7663 32.2079 56.8227Z" fill="#114DC8"/>
<path d="M75.709 41.4653H62.0611C61.1175 41.4653 60.3517 42.2311 60.3517 43.1747C60.3517 44.1183 61.1175 44.8842 62.0611 44.8842H67.1757V56.8227C67.1757 57.7663 67.9415 58.5321 68.8851 58.5321C69.8287 58.5321 70.5945 57.7663 70.5945 56.8227V44.8842H75.709C76.6526 44.8842 77.4185 44.1183 77.4185 43.1747C77.4185 42.2311 76.6526 41.4653 75.709 41.4653Z" fill="#114DC8"/>
<path d="M71.6888 77.6372C65.4255 83.4081 57.2887 86.5808 48.7827 86.5808C40.2766 86.5808 32.1398 83.4081 25.8765 77.6372C25.1791 76.9944 24.0988 77.0491 23.456 77.7329C22.8133 78.4303 22.8543 79.5107 23.5517 80.1534C30.4441 86.4988 39.4014 89.9996 48.7827 89.9996C58.1639 89.9996 67.1213 86.4988 74.0136 80.1398C74.711 79.497 74.7521 78.4167 74.1093 77.7192C73.4666 77.0355 72.3862 76.9944 71.6888 77.6372Z" fill="#0A1216"/>
<path d="M48.7695 80.0312C55.6345 80.0312 62.1986 77.4739 67.2448 72.8106C67.9423 72.1679 67.9833 71.0876 67.3405 70.3901C66.6978 69.6927 65.6175 69.6517 64.92 70.2944C60.5029 74.3696 54.7729 76.5987 48.7695 76.5987C42.766 76.5987 37.0361 74.356 32.619 70.2944C31.9215 69.6517 30.8412 69.7064 30.1984 70.3901C29.5557 71.0876 29.5967 72.1679 30.2942 72.8106C35.354 77.4739 41.9182 80.0312 48.7695 80.0312Z" fill="#0A1216"/>
</svg>
