<svg width="55" height="80" viewBox="0 0 55 80" fill="none" xmlns="http://www.w3.org/2000/svg">
<path d="M1.70046 12.8138C2.11072 12.8138 2.53466 12.6633 2.86287 12.3625C9.12615 6.5915 17.263 3.41883 25.7827 3.41883C34.2887 3.41883 42.4255 6.5915 48.6888 12.3625C49.3862 13.0052 50.4666 12.9642 51.1093 12.2667C51.7521 11.5693 51.6974 10.489 51.0136 9.84622C44.1212 3.50088 35.1639 0 25.7827 0C16.4014 0 7.44409 3.50088 0.551738 9.85989C-0.145702 10.5026 -0.186727 11.583 0.456012 12.2804C0.784219 12.636 1.24918 12.8138 1.70046 12.8138Z" fill="#0A1216"/>
<path d="M44.3534 19.5976C44.9961 18.9002 44.9414 17.8198 44.2576 17.1771C39.2115 12.5275 32.6473 9.97021 25.7823 9.97021C18.9173 9.97021 12.3532 12.5275 7.30699 17.1908C6.60955 17.8335 6.56852 18.9139 7.21126 19.6113C7.55314 19.9805 8.00443 20.1583 8.46939 20.1583C8.87965 20.1583 9.30358 20.0079 9.63179 19.707C14.0489 15.6318 19.7789 13.4027 25.7823 13.4027C31.7858 13.4027 37.5157 15.6455 41.9328 19.707C42.6303 20.3361 43.7106 20.2951 44.3534 19.5976Z" fill="#0A1216"/>
<path d="M37.4889 24.5221C34.2889 21.5683 30.1316 19.9409 25.7692 19.9409C21.4067 19.9409 17.2494 21.5683 14.0494 24.5221C13.352 25.1649 13.311 26.2452 13.9537 26.9427C14.5964 27.6401 15.6768 27.6811 16.3742 27.0384C18.9452 24.6726 22.2819 23.3734 25.7692 23.3734C29.2564 23.3734 32.5931 24.6726 35.1641 27.0384C35.4923 27.3393 35.9025 27.4897 36.3265 27.4897C36.7914 27.4897 37.2427 27.2982 37.5846 26.9427C38.2274 26.2316 38.1863 25.1512 37.4889 24.5221Z" fill="#0A1216"/>
<path d="M35.1771 52.9765C32.6062 55.3423 29.2694 56.6415 25.7822 56.6415C22.295 56.6415 18.9582 55.3423 16.3873 52.9765C15.6898 52.3338 14.6095 52.3748 13.9668 53.0722C13.324 53.7697 13.365 54.85 14.0625 55.4928C17.2625 58.4466 21.4335 60.074 25.7822 60.074C30.131 60.074 34.3019 58.4466 37.5019 55.4928C38.1994 54.85 38.2404 53.7697 37.5977 53.0722C36.9549 52.3748 35.8746 52.3338 35.1771 52.9765Z" fill="#0A1216"/>
<path d="M34.3024 39.9987C34.3024 35.2944 30.4733 31.4653 25.769 31.4653C21.0647 31.4653 17.2356 35.2944 17.2356 39.9987C17.2356 44.703 21.0647 48.5321 25.769 48.5321C30.4733 48.5321 34.3024 44.703 34.3024 39.9987ZM20.6544 39.9987C20.6544 37.1816 22.9519 34.8842 25.769 34.8842C28.5861 34.8842 30.8835 37.1816 30.8835 39.9987C30.8835 42.8158 28.5861 45.1133 25.769 45.1133C22.9519 45.1133 20.6544 42.8158 20.6544 39.9987Z" fill="#114DC8"/>
<path d="M9.20789 46.8227V33.1747C9.20789 32.2311 8.44207 31.4653 7.49847 31.4653C6.55488 31.4653 5.78906 32.2311 5.78906 33.1747V46.8227C5.78906 47.7663 6.55488 48.5321 7.49847 48.5321C8.44207 48.5321 9.20789 47.7663 9.20789 46.8227Z" fill="#114DC8"/>
<path d="M52.709 31.4653H39.0611C38.1175 31.4653 37.3517 32.2311 37.3517 33.1747C37.3517 34.1183 38.1175 34.8842 39.0611 34.8842H44.1757V46.8227C44.1757 47.7663 44.9415 48.5321 45.8851 48.5321C46.8287 48.5321 47.5945 47.7663 47.5945 46.8227V34.8842H52.709C53.6526 34.8842 54.4185 34.1183 54.4185 33.1747C54.4185 32.2311 53.6526 31.4653 52.709 31.4653Z" fill="#114DC8"/>
<path d="M48.6888 67.6372C42.4255 73.4081 34.2887 76.5808 25.7827 76.5808C17.2766 76.5808 9.13983 73.4081 2.87654 67.6372C2.1791 66.9944 1.09875 67.0491 0.456012 67.7329C-0.186727 68.4303 -0.145702 69.5107 0.551739 70.1534C7.44409 76.4988 16.4014 79.9996 25.7827 79.9996C35.1639 79.9996 44.1213 76.4988 51.0136 70.1398C51.711 69.497 51.7521 68.4167 51.1093 67.7192C50.4666 67.0355 49.3862 66.9944 48.6888 67.6372Z" fill="#0A1216"/>
<path d="M25.7695 70.0312C32.6345 70.0312 39.1986 67.4739 44.2448 62.8106C44.9423 62.1679 44.9833 61.0876 44.3405 60.3901C43.6978 59.6927 42.6175 59.6517 41.92 60.2944C37.5029 64.3696 31.7729 66.5987 25.7695 66.5987C19.766 66.5987 14.0361 64.356 9.61897 60.2944C8.92153 59.6517 7.84118 59.7064 7.19844 60.3901C6.5557 61.0876 6.59673 62.1679 7.29417 62.8106C12.354 67.4739 18.9182 70.0312 25.7695 70.0312Z" fill="#0A1216"/>
</svg>
