<svg width="86" height="81" viewBox="0 0 86 81" fill="none" xmlns="http://www.w3.org/2000/svg">
<path d="M68.0732 19.4914C67.0933 19.4935 66.1153 19.5779 65.1496 19.7437C64.5388 14.3634 61.9687 9.39626 57.9297 5.78978C53.8906 2.18331 48.6652 0.189941 43.2504 0.189941C37.8355 0.189941 32.6101 2.18331 28.5711 5.78978C24.532 9.39626 21.9619 14.3634 21.3511 19.7437C20.3854 19.5779 19.4074 19.4935 18.4276 19.4914C13.6729 19.4914 9.11294 21.3801 5.75086 24.7422C2.38879 28.1043 0.5 32.6642 0.5 37.4189C0.5 42.1736 2.38879 46.7335 5.75086 50.0956C9.11294 53.4577 13.6729 55.3465 18.4276 55.3465H25.3228V61.2474L17.9918 63.6924C17.7173 63.7838 17.4785 63.9593 17.3092 64.1939C17.14 64.4285 17.0487 64.7104 17.0485 64.9997V69.3327C15.7486 69.6683 14.6156 70.4666 13.8621 71.5778C13.1086 72.689 12.7862 74.0369 12.9554 75.3688C13.1245 76.7007 13.7737 77.9251 14.7811 78.8127C15.7885 79.7002 17.085 80.1899 18.4276 80.1899C19.7702 80.1899 21.0667 79.7002 22.0741 78.8127C23.0815 77.9251 23.7306 76.7007 23.8998 75.3688C24.069 74.0369 23.7466 72.689 22.993 71.5778C22.2395 70.4666 21.1066 69.6683 19.8066 69.3327V65.994L27.1376 63.549C27.4121 63.4576 27.6509 63.2821 27.8202 63.0475C27.9895 62.8129 28.0807 62.531 28.0809 62.2417V55.3465H41.8713V69.3327C40.5713 69.6683 39.4384 70.4666 38.6849 71.5778C37.9314 72.689 37.609 74.0369 37.7781 75.3688C37.9473 76.7007 38.5964 77.9251 39.6038 78.8127C40.6112 79.7002 41.9078 80.1899 43.2504 80.1899C44.593 80.1899 45.8895 79.7002 46.8969 78.8127C47.9043 77.9251 48.5534 76.7007 48.7226 75.3688C48.8917 74.0369 48.5693 72.689 47.8158 71.5778C47.0623 70.4666 45.9294 69.6683 44.6294 69.3327V55.3465H58.4198V62.2417C58.4201 62.531 58.5113 62.8129 58.6805 63.0475C58.8498 63.2821 59.0886 63.4576 59.3631 63.549L66.6941 65.994V69.3327C65.3941 69.6683 64.2612 70.4666 63.5077 71.5778C62.7542 72.689 62.4318 74.0369 62.6009 75.3688C62.7701 76.7007 63.4192 77.9251 64.4266 78.8127C65.434 79.7002 66.7305 80.1899 68.0732 80.1899C69.4157 80.1899 70.7123 79.7002 71.7197 78.8127C72.7271 77.9251 73.3762 76.7007 73.5454 75.3688C73.7145 74.0369 73.3921 72.689 72.6386 71.5778C71.8851 70.4666 70.7522 69.6683 69.4522 69.3327V64.9997C69.452 64.7104 69.3608 64.4285 69.1915 64.1939C69.0222 63.9593 68.7834 63.7838 68.5089 63.6924L61.1779 61.2474V55.3465H68.0732C72.8278 55.3465 77.3878 53.4577 80.7498 50.0956C84.1119 46.7335 86.0007 42.1736 86.0007 37.4189C86.0007 32.6642 84.1119 28.1043 80.7498 24.7422C77.3878 21.3801 72.8278 19.4914 68.0732 19.4914ZM21.1857 74.653C21.1857 75.1985 21.0239 75.7318 20.7208 76.1853C20.4178 76.6389 19.987 76.9924 19.483 77.2012C18.9791 77.4099 18.4245 77.4646 17.8895 77.3581C17.3545 77.2517 16.863 76.989 16.4773 76.6033C16.0916 76.2176 15.8289 75.7261 15.7225 75.1911C15.6161 74.6561 15.6707 74.1015 15.8794 73.5976C16.0882 73.0936 16.4417 72.6628 16.8953 72.3598C17.3488 72.0567 17.8821 71.895 18.4276 71.895C19.1591 71.895 19.8606 72.1855 20.3778 72.7028C20.8951 73.22 21.1857 73.9216 21.1857 74.653ZM46.0084 74.653C46.0084 75.1985 45.8467 75.7318 45.5436 76.1853C45.2406 76.6389 44.8098 76.9924 44.3058 77.2012C43.8019 77.4099 43.2473 77.4646 42.7123 77.3581C42.1773 77.2517 41.6858 76.989 41.3001 76.6033C40.9144 76.2176 40.6517 75.7261 40.5453 75.1911C40.4388 74.6561 40.4935 74.1015 40.7022 73.5976C40.911 73.0936 41.2645 72.6628 41.718 72.3598C42.1716 72.0567 42.7049 71.895 43.2504 71.895C43.9818 71.895 44.6834 72.1855 45.2006 72.7028C45.7179 73.22 46.0084 73.9216 46.0084 74.653ZM70.8312 74.653C70.8312 75.1985 70.6695 75.7318 70.3664 76.1853C70.0634 76.6389 69.6326 76.9924 69.1286 77.2012C68.6246 77.4099 68.0701 77.4646 67.5351 77.3581C67.0001 77.2517 66.5086 76.989 66.1229 76.6033C65.7372 76.2176 65.4745 75.7261 65.3681 75.1911C65.2616 74.6561 65.3163 74.1015 65.525 73.5976C65.7338 73.0936 66.0873 72.6628 66.5408 72.3598C66.9944 72.0567 67.5276 71.895 68.0732 71.895C68.8046 71.895 69.5062 72.1855 70.0234 72.7028C70.5407 73.22 70.8312 73.9216 70.8312 74.653ZM68.0732 52.5884H18.4276C16.2669 52.5976 14.1292 52.1451 12.1576 51.2612C10.1859 50.3773 8.42586 49.0825 6.99519 47.4633C5.56453 45.8441 4.49627 43.9379 3.86194 41.8725C3.2276 39.807 3.04184 37.6298 3.31707 35.4867C3.5923 33.3437 4.32217 31.2841 5.45784 29.4459C6.5935 27.6078 8.10875 26.0334 9.90213 24.8283C11.6955 23.6232 13.7257 22.815 15.8567 22.4581C17.9877 22.1011 20.1703 22.2034 22.2586 22.7583C22.458 22.8102 22.6665 22.8167 22.8687 22.7774C23.071 22.7381 23.2619 22.654 23.4274 22.5313C23.5929 22.4085 23.7288 22.2502 23.825 22.068C23.9213 21.8859 23.9755 21.6844 23.9837 21.4786C24.1723 16.4949 26.2847 11.7782 29.8773 8.31897C33.4699 4.85978 38.2631 2.92726 43.2504 2.92726C48.2376 2.92726 53.0308 4.85978 56.6234 8.31897C60.216 11.7782 62.3284 16.4949 62.517 21.4786C62.5252 21.6844 62.5794 21.8859 62.6757 22.068C62.772 22.2502 62.9078 22.4085 63.0733 22.5313C63.2388 22.654 63.4297 22.7381 63.632 22.7774C63.8342 22.8167 64.0428 22.8102 64.2422 22.7583C66.3271 22.2121 68.5045 22.1166 70.6292 22.4782C72.7539 22.8398 74.7771 23.6503 76.5639 24.8555C78.3507 26.0607 79.86 27.633 80.9913 29.4675C82.1225 31.3021 82.8496 33.3567 83.1242 35.4944C83.3987 37.6321 83.2143 39.8038 82.5834 41.8646C81.9524 43.9255 80.8894 45.8281 79.4651 47.4457C78.0408 49.0633 76.2881 50.3587 74.3237 51.2455C72.3593 52.1323 70.2284 52.5901 68.0732 52.5884Z" fill="#0A1216"/>
<path d="M60.3189 26.4867L57.5098 25.3435C57.3608 24.9408 57.194 24.5381 57.0064 24.1396L58.2848 21.4629C58.4068 21.2049 58.4459 20.9154 58.3965 20.6343C58.3471 20.3532 58.2117 20.0944 58.009 19.8935L53.8718 15.7564C53.6702 15.5548 53.4109 15.4207 53.1299 15.3726C52.8488 15.3244 52.5598 15.3645 52.3025 15.4875L49.6258 16.7658C49.2258 16.582 48.8241 16.4142 48.4205 16.2625L47.2786 13.4548C47.1759 13.2017 47.0004 12.9848 46.7743 12.8316C46.5482 12.6784 46.2817 12.5958 46.0085 12.5942H40.4924C40.2181 12.5944 39.95 12.6764 39.7226 12.8297C39.4951 12.9829 39.3185 13.2006 39.2154 13.4548L38.0735 16.2625C37.6708 16.4096 37.2691 16.5774 36.8682 16.7658L34.1915 15.4902C33.9342 15.3673 33.6451 15.3272 33.3641 15.3753C33.0831 15.4235 32.8238 15.5576 32.6222 15.7591L28.485 19.8963C28.2823 20.0972 28.1469 20.356 28.0975 20.6371C28.0481 20.9182 28.0871 21.2077 28.2092 21.4656L29.4876 24.1424C29.3037 24.5423 29.1359 24.944 28.9842 25.3476L26.1765 26.4895C25.9241 26.5935 25.7082 26.7701 25.5562 26.997C25.4042 27.2238 25.323 27.4907 25.3229 27.7637V33.2799C25.323 33.5542 25.405 33.8222 25.5583 34.0497C25.7116 34.2772 25.9292 34.4538 26.1834 34.5569L28.9911 35.6987C29.1401 36.1023 29.3079 36.5041 29.4945 36.904L28.2189 39.5807C28.0968 39.8387 28.0578 40.1282 28.1072 40.4093C28.1566 40.6904 28.292 40.9492 28.4947 41.1501L32.6318 45.2872C32.8327 45.4899 33.0915 45.6253 33.3726 45.6747C33.6537 45.7241 33.9432 45.6851 34.2012 45.563L36.8779 44.286C37.2778 44.4722 37.6805 44.6391 38.0818 44.788L39.225 47.5971C39.3288 47.8482 39.5045 48.0631 39.7299 48.2147C39.9554 48.3663 40.2206 48.448 40.4924 48.4494H46.0085C46.2827 48.4493 46.5506 48.3676 46.778 48.2145C47.0055 48.0615 47.1822 47.8441 47.2855 47.5902L48.4288 44.7811C48.8301 44.6322 49.2327 44.4653 49.6327 44.2791L52.3094 45.5561C52.5674 45.6782 52.8568 45.7172 53.1379 45.6678C53.419 45.6184 53.6778 45.483 53.8787 45.2803L58.0159 41.1432C58.2186 40.9423 58.354 40.6835 58.4034 40.4024C58.4528 40.1213 58.4137 39.8318 58.2917 39.5738L57.0133 36.8971C57.1972 36.4981 57.365 36.0964 57.5167 35.6918L60.3258 34.55C60.5773 34.446 60.7924 34.2699 60.9441 34.0439C61.0958 33.8179 61.1772 33.5521 61.178 33.2799V27.7637C61.178 27.4896 61.0962 27.2217 60.9432 26.9942C60.7901 26.7668 60.5728 26.5901 60.3189 26.4867ZM58.4199 32.3518L55.888 33.3819C55.7 33.4584 55.5312 33.5755 55.3937 33.7247C55.2561 33.8739 55.1532 34.0516 55.0923 34.2452C54.8718 34.9385 54.5903 35.6109 54.2511 36.2545C54.1518 36.4444 54.0981 36.6548 54.0942 36.869C54.0904 37.0832 54.1365 37.2954 54.229 37.4887L55.3764 39.8896L52.6183 42.6477L50.2174 41.5004C50.0243 41.4081 49.8123 41.3621 49.5983 41.3659C49.3844 41.3698 49.1742 41.4233 48.9845 41.5224C48.34 41.8608 47.6673 42.1422 46.9739 42.3637C46.7803 42.4246 46.6025 42.5275 46.4533 42.665C46.3041 42.8026 46.1871 42.9714 46.1106 43.1594L45.0804 45.6913H41.4205L40.3903 43.1594C40.3138 42.9714 40.1968 42.8026 40.0476 42.665C39.8984 42.5275 39.7206 42.4246 39.527 42.3637C38.8336 42.1422 38.1609 41.8608 37.5164 41.5224C37.3267 41.4233 37.1165 41.3698 36.9026 41.3659C36.6886 41.3621 36.4766 41.4081 36.2835 41.5004L33.8826 42.6477L31.1245 39.8896L32.2719 37.4887C32.3643 37.2954 32.4105 37.0832 32.4067 36.869C32.4028 36.6548 32.3491 36.4444 32.2498 36.2545C31.911 35.6109 31.6299 34.9385 31.41 34.2452C31.3489 34.0515 31.2458 33.8737 31.108 33.7244C30.9702 33.5752 30.8011 33.4583 30.6129 33.3819L28.081 32.3518V28.6918L30.6129 27.6617C30.8011 27.5854 30.9702 27.4684 31.108 27.3192C31.2458 27.1699 31.3489 26.9921 31.41 26.7984C31.6299 26.1051 31.911 25.4327 32.2498 24.7891C32.3491 24.5993 32.4028 24.3888 32.4067 24.1746C32.4105 23.9604 32.3643 23.7482 32.2719 23.5549L31.1245 21.154L33.8826 18.3959L36.2835 19.5432C36.4766 19.6355 36.6886 19.6815 36.9026 19.6777C37.1165 19.6738 37.3267 19.6203 37.5164 19.5212C38.1605 19.1824 38.8333 18.9013 39.527 18.6813C39.7207 18.6203 39.8986 18.5171 40.0478 18.3793C40.197 18.2415 40.314 18.0725 40.3903 17.8843L41.4205 15.3523H45.0804L46.1106 17.8843C46.1869 18.0725 46.3038 18.2415 46.4531 18.3793C46.6023 18.5171 46.7801 18.6203 46.9739 18.6813C47.6676 18.9013 48.3404 19.1824 48.9845 19.5212C49.1742 19.6203 49.3844 19.6738 49.5983 19.6777C49.8123 19.6815 50.0243 19.6355 50.2174 19.5432L52.6183 18.3959L55.3764 21.154L54.229 23.5549C54.1365 23.7482 54.0904 23.9604 54.0942 24.1746C54.0981 24.3888 54.1518 24.5993 54.2511 24.7891C54.59 25.4333 54.8715 26.1061 55.0923 26.7998C55.1534 26.9931 55.2564 27.1706 55.3939 27.3195C55.5315 27.4685 55.7002 27.5853 55.888 27.6617L58.4199 28.6918V32.3518Z" fill="#114DC8"/>
<path d="M43.2505 20.8726C41.3412 20.8726 39.4749 21.4387 37.8874 22.4994C36.2999 23.5602 35.0626 25.0678 34.332 26.8317C33.6014 28.5956 33.4102 30.5366 33.7827 32.4091C34.1551 34.2817 35.0745 36.0017 36.4246 37.3518C37.7746 38.7018 39.4947 39.6212 41.3672 39.9937C43.2398 40.3662 45.1807 40.175 46.9446 39.4444C48.7086 38.7137 50.2162 37.4764 51.2769 35.889C52.3376 34.3015 52.9038 32.4351 52.9038 30.5259C52.9009 27.9665 51.8829 25.5129 50.0732 23.7032C48.2635 21.8935 45.8098 20.8755 43.2505 20.8726ZM43.2505 37.4211C41.8867 37.4211 40.5536 37.0167 39.4197 36.259C38.2858 35.5014 37.402 34.4245 36.8801 33.1645C36.3582 31.9046 36.2217 30.5182 36.4878 29.1807C36.7538 27.8431 37.4105 26.6145 38.3748 25.6502C39.3391 24.6859 40.5677 24.0292 41.9053 23.7631C43.2428 23.4971 44.6292 23.6336 45.8892 24.1555C47.1491 24.6774 48.226 25.5612 48.9837 26.6951C49.7413 27.829 50.1457 29.1621 50.1457 30.5259C50.1435 32.3539 49.4164 34.1065 48.1237 35.3991C46.8311 36.6917 45.0785 37.4189 43.2505 37.4211Z" fill="#114DC8"/>
</svg>
