<svg width="100" height="101" viewBox="0 0 100 101" fill="none" xmlns="http://www.w3.org/2000/svg">
<path d="M75.0732 29.4914C74.0933 29.4935 73.1153 29.5779 72.1496 29.7437C71.5388 24.3634 68.9687 19.3963 64.9297 15.7898C60.8906 12.1833 55.6652 10.1899 50.2504 10.1899C44.8355 10.1899 39.6101 12.1833 35.5711 15.7898C31.532 19.3963 28.9619 24.3634 28.3511 29.7437C27.3854 29.5779 26.4074 29.4935 25.4276 29.4914C20.6729 29.4914 16.1129 31.3801 12.7509 34.7422C9.38879 38.1043 7.5 42.6642 7.5 47.4189C7.5 52.1736 9.38879 56.7335 12.7509 60.0956C16.1129 63.4577 20.6729 65.3465 25.4276 65.3465H32.3228V71.2474L24.9918 73.6924C24.7173 73.7838 24.4785 73.9593 24.3092 74.1939C24.14 74.4285 24.0487 74.7104 24.0485 74.9997V79.3327C22.7486 79.6683 21.6156 80.4666 20.8621 81.5778C20.1086 82.689 19.7862 84.0369 19.9554 85.3688C20.1245 86.7007 20.7737 87.9251 21.7811 88.8127C22.7885 89.7002 24.085 90.1899 25.4276 90.1899C26.7702 90.1899 28.0667 89.7002 29.0741 88.8127C30.0815 87.9251 30.7306 86.7007 30.8998 85.3688C31.069 84.0369 30.7466 82.689 29.993 81.5778C29.2395 80.4666 28.1066 79.6683 26.8066 79.3327V75.994L34.1376 73.549C34.4121 73.4576 34.6509 73.2821 34.8202 73.0475C34.9895 72.8129 35.0807 72.531 35.0809 72.2417V65.3465H48.8713V79.3327C47.5713 79.6683 46.4384 80.4666 45.6849 81.5778C44.9314 82.689 44.609 84.0369 44.7781 85.3688C44.9473 86.7007 45.5964 87.9251 46.6038 88.8127C47.6112 89.7002 48.9078 90.1899 50.2504 90.1899C51.593 90.1899 52.8895 89.7002 53.8969 88.8127C54.9043 87.9251 55.5534 86.7007 55.7226 85.3688C55.8917 84.0369 55.5693 82.689 54.8158 81.5778C54.0623 80.4666 52.9294 79.6683 51.6294 79.3327V65.3465H65.4198V72.2417C65.4201 72.531 65.5113 72.8129 65.6805 73.0475C65.8498 73.2821 66.0886 73.4576 66.3631 73.549L73.6941 75.994V79.3327C72.3941 79.6683 71.2612 80.4666 70.5077 81.5778C69.7542 82.689 69.4318 84.0369 69.6009 85.3688C69.7701 86.7007 70.4192 87.9251 71.4266 88.8127C72.434 89.7002 73.7305 90.1899 75.0732 90.1899C76.4157 90.1899 77.7123 89.7002 78.7197 88.8127C79.7271 87.9251 80.3762 86.7007 80.5454 85.3688C80.7145 84.0369 80.3921 82.689 79.6386 81.5778C78.8851 80.4666 77.7522 79.6683 76.4522 79.3327V74.9997C76.452 74.7104 76.3608 74.4285 76.1915 74.1939C76.0222 73.9593 75.7834 73.7838 75.5089 73.6924L68.1779 71.2474V65.3465H75.0732C79.8278 65.3465 84.3878 63.4577 87.7498 60.0956C91.1119 56.7335 93.0007 52.1736 93.0007 47.4189C93.0007 42.6642 91.1119 38.1043 87.7498 34.7422C84.3878 31.3801 79.8278 29.4914 75.0732 29.4914ZM28.1857 84.653C28.1857 85.1985 28.0239 85.7318 27.7208 86.1853C27.4178 86.6389 26.987 86.9924 26.483 87.2012C25.9791 87.4099 25.4245 87.4646 24.8895 87.3581C24.3545 87.2517 23.863 86.989 23.4773 86.6033C23.0916 86.2176 22.8289 85.7261 22.7225 85.1911C22.6161 84.6561 22.6707 84.1015 22.8794 83.5976C23.0882 83.0936 23.4417 82.6628 23.8953 82.3598C24.3488 82.0567 24.8821 81.895 25.4276 81.895C26.1591 81.895 26.8606 82.1855 27.3778 82.7028C27.8951 83.22 28.1857 83.9216 28.1857 84.653ZM53.0084 84.653C53.0084 85.1985 52.8467 85.7318 52.5436 86.1853C52.2406 86.6389 51.8098 86.9924 51.3058 87.2012C50.8019 87.4099 50.2473 87.4646 49.7123 87.3581C49.1773 87.2517 48.6858 86.989 48.3001 86.6033C47.9144 86.2176 47.6517 85.7261 47.5453 85.1911C47.4388 84.6561 47.4935 84.1015 47.7022 83.5976C47.911 83.0936 48.2645 82.6628 48.718 82.3598C49.1716 82.0567 49.7049 81.895 50.2504 81.895C50.9818 81.895 51.6834 82.1855 52.2006 82.7028C52.7179 83.22 53.0084 83.9216 53.0084 84.653ZM77.8312 84.653C77.8312 85.1985 77.6695 85.7318 77.3664 86.1853C77.0634 86.6389 76.6326 86.9924 76.1286 87.2012C75.6246 87.4099 75.0701 87.4646 74.5351 87.3581C74.0001 87.2517 73.5086 86.989 73.1229 86.6033C72.7372 86.2176 72.4745 85.7261 72.3681 85.1911C72.2616 84.6561 72.3163 84.1015 72.525 83.5976C72.7338 83.0936 73.0873 82.6628 73.5408 82.3598C73.9944 82.0567 74.5276 81.895 75.0732 81.895C75.8046 81.895 76.5062 82.1855 77.0234 82.7028C77.5407 83.22 77.8312 83.9216 77.8312 84.653ZM75.0732 62.5884H25.4276C23.2669 62.5976 21.1292 62.1451 19.1576 61.2612C17.1859 60.3773 15.4259 59.0825 13.9952 57.4633C12.5645 55.8441 11.4963 53.9379 10.8619 51.8725C10.2276 49.807 10.0418 47.6298 10.3171 45.4867C10.5923 43.3437 11.3222 41.2841 12.4578 39.4459C13.5935 37.6078 15.1087 36.0334 16.9021 34.8283C18.6955 33.6232 20.7257 32.815 22.8567 32.4581C24.9877 32.1011 27.1703 32.2034 29.2586 32.7583C29.458 32.8102 29.6665 32.8167 29.8687 32.7774C30.071 32.7381 30.2619 32.654 30.4274 32.5313C30.5929 32.4085 30.7288 32.2502 30.825 32.068C30.9213 31.8859 30.9755 31.6844 30.9837 31.4786C31.1723 26.4949 33.2847 21.7782 36.8773 18.319C40.4699 14.8598 45.2631 12.9273 50.2504 12.9273C55.2376 12.9273 60.0308 14.8598 63.6234 18.319C67.216 21.7782 69.3284 26.4949 69.517 31.4786C69.5252 31.6844 69.5794 31.8859 69.6757 32.068C69.772 32.2502 69.9078 32.4085 70.0733 32.5313C70.2388 32.654 70.4297 32.7381 70.632 32.7774C70.8342 32.8167 71.0428 32.8102 71.2422 32.7583C73.3271 32.2121 75.5045 32.1166 77.6292 32.4782C79.7539 32.8398 81.7771 33.6503 83.5639 34.8555C85.3507 36.0607 86.86 37.633 87.9913 39.4675C89.1225 41.3021 89.8496 43.3567 90.1242 45.4944C90.3987 47.6321 90.2143 49.8038 89.5834 51.8646C88.9524 53.9255 87.8894 55.8281 86.4651 57.4457C85.0408 59.0633 83.2881 60.3587 81.3237 61.2455C79.3593 62.1323 77.2284 62.5901 75.0732 62.5884Z" fill="#0A1216"/>
<path d="M67.3189 36.4867L64.5098 35.3435C64.3608 34.9408 64.194 34.5381 64.0064 34.1396L65.2848 31.4629C65.4068 31.2049 65.4459 30.9154 65.3965 30.6343C65.3471 30.3532 65.2117 30.0944 65.009 29.8935L60.8718 25.7564C60.6702 25.5548 60.4109 25.4207 60.1299 25.3726C59.8488 25.3244 59.5598 25.3645 59.3025 25.4875L56.6258 26.7658C56.2258 26.582 55.8241 26.4142 55.4205 26.2625L54.2786 23.4548C54.1759 23.2017 54.0004 22.9848 53.7743 22.8316C53.5482 22.6784 53.2817 22.5958 53.0085 22.5942H47.4924C47.2181 22.5944 46.95 22.6764 46.7226 22.8297C46.4951 22.9829 46.3185 23.2006 46.2154 23.4548L45.0735 26.2625C44.6708 26.4096 44.2691 26.5774 43.8682 26.7658L41.1915 25.4902C40.9342 25.3673 40.6451 25.3272 40.3641 25.3753C40.0831 25.4235 39.8238 25.5576 39.6222 25.7591L35.485 29.8963C35.2823 30.0972 35.1469 30.356 35.0975 30.6371C35.0481 30.9182 35.0871 31.2077 35.2092 31.4656L36.4876 34.1424C36.3037 34.5423 36.1359 34.944 35.9842 35.3476L33.1765 36.4895C32.9241 36.5935 32.7082 36.7701 32.5562 36.997C32.4042 37.2238 32.323 37.4907 32.3229 37.7637V43.2799C32.323 43.5542 32.405 43.8222 32.5583 44.0497C32.7116 44.2772 32.9292 44.4538 33.1834 44.5569L35.9911 45.6987C36.1401 46.1023 36.3079 46.5041 36.4945 46.904L35.2189 49.5807C35.0968 49.8387 35.0578 50.1282 35.1072 50.4093C35.1566 50.6904 35.292 50.9492 35.4947 51.1501L39.6318 55.2872C39.8327 55.4899 40.0915 55.6253 40.3726 55.6747C40.6537 55.7241 40.9432 55.6851 41.2012 55.563L43.8779 54.286C44.2778 54.4722 44.6805 54.6391 45.0818 54.788L46.225 57.5971C46.3288 57.8482 46.5045 58.0631 46.7299 58.2147C46.9554 58.3663 47.2206 58.448 47.4924 58.4494H53.0085C53.2827 58.4493 53.5506 58.3676 53.778 58.2145C54.0055 58.0615 54.1822 57.8441 54.2855 57.5902L55.4288 54.7811C55.8301 54.6322 56.2327 54.4653 56.6327 54.2791L59.3094 55.5561C59.5674 55.6782 59.8568 55.7172 60.1379 55.6678C60.419 55.6184 60.6778 55.483 60.8787 55.2803L65.0159 51.1432C65.2186 50.9423 65.354 50.6835 65.4034 50.4024C65.4528 50.1213 65.4137 49.8318 65.2917 49.5738L64.0133 46.8971C64.1972 46.4981 64.365 46.0964 64.5167 45.6918L67.3258 44.55C67.5773 44.446 67.7924 44.2699 67.9441 44.0439C68.0958 43.8179 68.1772 43.5521 68.178 43.2799V37.7637C68.178 37.4896 68.0962 37.2217 67.9432 36.9942C67.7901 36.7668 67.5728 36.5901 67.3189 36.4867ZM65.4199 42.3518L62.888 43.3819C62.7 43.4584 62.5312 43.5755 62.3937 43.7247C62.2561 43.8739 62.1532 44.0516 62.0923 44.2452C61.8718 44.9385 61.5903 45.6109 61.2511 46.2545C61.1518 46.4444 61.0981 46.6548 61.0942 46.869C61.0904 47.0832 61.1365 47.2954 61.229 47.4887L62.3764 49.8896L59.6183 52.6477L57.2174 51.5004C57.0243 51.4081 56.8123 51.3621 56.5983 51.3659C56.3844 51.3698 56.1742 51.4233 55.9845 51.5224C55.34 51.8608 54.6673 52.1422 53.9739 52.3637C53.7803 52.4246 53.6025 52.5275 53.4533 52.665C53.3041 52.8026 53.1871 52.9714 53.1106 53.1594L52.0804 55.6913H48.4205L47.3903 53.1594C47.3138 52.9714 47.1968 52.8026 47.0476 52.665C46.8984 52.5275 46.7206 52.4246 46.527 52.3637C45.8336 52.1422 45.1609 51.8608 44.5164 51.5224C44.3267 51.4233 44.1165 51.3698 43.9026 51.3659C43.6886 51.3621 43.4766 51.4081 43.2835 51.5004L40.8826 52.6477L38.1245 49.8896L39.2719 47.4887C39.3643 47.2954 39.4105 47.0832 39.4067 46.869C39.4028 46.6548 39.3491 46.4444 39.2498 46.2545C38.911 45.6109 38.6299 44.9385 38.41 44.2452C38.3489 44.0515 38.2458 43.8737 38.108 43.7244C37.9702 43.5752 37.8011 43.4583 37.6129 43.3819L35.081 42.3518V38.6918L37.6129 37.6617C37.8011 37.5854 37.9702 37.4684 38.108 37.3192C38.2458 37.1699 38.3489 36.9921 38.41 36.7984C38.6299 36.1051 38.911 35.4327 39.2498 34.7891C39.3491 34.5993 39.4028 34.3888 39.4067 34.1746C39.4105 33.9604 39.3643 33.7482 39.2719 33.5549L38.1245 31.154L40.8826 28.3959L43.2835 29.5432C43.4766 29.6355 43.6886 29.6815 43.9026 29.6777C44.1165 29.6738 44.3267 29.6203 44.5164 29.5212C45.1605 29.1824 45.8333 28.9013 46.527 28.6813C46.7207 28.6203 46.8986 28.5171 47.0478 28.3793C47.197 28.2415 47.314 28.0725 47.3903 27.8843L48.4205 25.3523H52.0804L53.1106 27.8843C53.1869 28.0725 53.3038 28.2415 53.4531 28.3793C53.6023 28.5171 53.7801 28.6203 53.9739 28.6813C54.6676 28.9013 55.3404 29.1824 55.9845 29.5212C56.1742 29.6203 56.3844 29.6738 56.5983 29.6777C56.8123 29.6815 57.0243 29.6355 57.2174 29.5432L59.6183 28.3959L62.3764 31.154L61.229 33.5549C61.1365 33.7482 61.0904 33.9604 61.0942 34.1746C61.0981 34.3888 61.1518 34.5993 61.2511 34.7891C61.59 35.4333 61.8715 36.1061 62.0923 36.7998C62.1534 36.9931 62.2564 37.1706 62.3939 37.3195C62.5315 37.4685 62.7002 37.5853 62.888 37.6617L65.4199 38.6918V42.3518Z" fill="#114DC8"/>
<path d="M50.2505 30.8726C48.3412 30.8726 46.4749 31.4387 44.8874 32.4994C43.2999 33.5602 42.0626 35.0678 41.332 36.8317C40.6014 38.5956 40.4102 40.5366 40.7827 42.4091C41.1551 44.2817 42.0745 46.0017 43.4246 47.3518C44.7746 48.7018 46.4947 49.6212 48.3672 49.9937C50.2398 50.3662 52.1807 50.175 53.9446 49.4444C55.7086 48.7137 57.2162 47.4764 58.2769 45.889C59.3376 44.3015 59.9038 42.4351 59.9038 40.5259C59.9009 37.9665 58.8829 35.5129 57.0732 33.7032C55.2635 31.8935 52.8098 30.8755 50.2505 30.8726ZM50.2505 47.4211C48.8867 47.4211 47.5536 47.0167 46.4197 46.259C45.2858 45.5014 44.402 44.4245 43.8801 43.1645C43.3582 41.9046 43.2217 40.5182 43.4878 39.1807C43.7538 37.8431 44.4105 36.6145 45.3748 35.6502C46.3391 34.6859 47.5677 34.0292 48.9053 33.7631C50.2428 33.4971 51.6292 33.6336 52.8892 34.1555C54.1491 34.6774 55.226 35.5612 55.9837 36.6951C56.7413 37.829 57.1457 39.1621 57.1457 40.5259C57.1435 42.3539 56.4164 44.1065 55.1237 45.3991C53.8311 46.6917 52.0785 47.4189 50.2505 47.4211Z" fill="#114DC8"/>
</svg>
