<svg width="742" height="26" viewBox="0 0 742 26" fill="none" xmlns="http://www.w3.org/2000/svg">
    <path d="M1 15.2421C3.57514 18.5315 6.69 23.8572 11.252 24.3479C20.1421 25.3041 29.1469 21.7492 36.1866 16.2598C37.8866 14.9342 39.0622 15.3308 40.1534 13.3138C40.6743 12.3511 41.5174 20.9631 43.6567 21.7769C49.429 23.9726 57.6531 23.8032 63.6455 24.2409C74.3574 25.023 84.9384 23.8044 95.4319 21.5626C97.9497 21.0248 103.987 17.0217 105.89 19.7415C112.678 29.4459 133.9 22.4812 142.519 20.5985C149.394 19.0968 155.818 16.8428 162.25 13.9565C163.433 13.4259 165.627 11.7335 165.186 13.7958C162.39 26.8812 225.932 9.14515 227.987 12.3496C230.964 16.9936 232.594 17.4927 238.702 19.0451C256.539 23.5784 275.722 21.1358 293.209 16.367C300.352 14.4189 298.054 15.7331 300.524 20.5985C304.174 27.7899 322.648 23.4816 327.828 22.634C343.249 20.1101 358.628 16.4712 374.246 15.4563C376.303 15.3226 376.105 15.6201 377.491 16.4205C379.359 17.4995 380.73 18.27 382.952 18.6166C396.209 20.6842 410.088 20.0628 423.445 20.0628C434.768 20.0628 446.168 20.077 457.446 18.8844C460.548 18.5565 466.295 16.2348 469.554 17.2775C471.268 17.826 470.107 21.027 472.541 21.027C475.435 21.027 478.702 20.015 481.454 19.4201C492.296 17.0763 502.93 15.1197 514.013 14.4922C517.555 14.2917 522.716 13.4081 526.068 15.2421C527.243 15.8848 527.485 16.2063 528.85 16.2063C540.243 16.2063 550.541 15.5796 561.512 12.4032C566.984 10.8189 570.087 9.25299 573.619 13.7423C575.063 15.5774 578.14 15.281 580.162 15.2421C591.123 15.031 602.212 13.2881 613.082 11.9211C623.623 10.5953 633.893 7.86028 644.353 6.02906C646.868 5.58874 659.283 1.93822 661.663 5.11847C664.641 9.09971 669.045 6.62036 673.305 5.60055C676.773 4.7706 695.198 0.13107 697.209 5.60055C697.936 7.57416 697.488 11.0874 700.404 10.2606C706.02 8.66823 711.294 4.63639 717.353 4.63639C721.111 4.63639 723.512 5.26186 727.812 3.8865C731.868 2.58871 736.682 0.779785 741 0.779785" stroke="white" stroke-width="1.03878" stroke-linecap="round"/>
</svg>
