<svg width="100" height="101" viewBox="0 0 100 101" fill="none" xmlns="http://www.w3.org/2000/svg">
    <g clip-path="url(#clip0_19_4156)">
        <path d="M75 50.7798V16.4048C75 12.953 72.2018 10.1548 68.75 10.1548L31.25 10.1548C27.7982 10.1548 25 12.953 25 16.4048L25 85.1548C25 88.6066 27.7982 91.4048 31.25 91.4048H50" stroke="#0A1216" stroke-width="3" stroke-linecap="round" stroke-linejoin="round"/>
        <path d="M50.5 24.7798C52.433 24.7798 54 23.2128 54 21.2798C54 19.3468 52.433 17.7798 50.5 17.7798C48.567 17.7798 47 19.3468 47 21.2798C47 23.2128 48.567 24.7798 50.5 24.7798Z" fill="#0A1216"/>
        <g clip-path="url(#clip1_19_4156)">
            <path d="M67.0288 60.5298C67.3061 59.4557 67.9328 58.5043 68.8101 57.8254C69.6875 57.1465 70.7657 56.7787 71.875 56.7798H72C72.2653 56.7798 72.5196 56.8851 72.7071 57.0727C72.8947 57.2602 73 57.5146 73 57.7798C73 58.045 72.8947 58.2994 72.7071 58.4869C72.5196 58.6744 72.2653 58.7798 72 58.7798H71.875C71.2099 58.7797 70.5636 59.0007 70.0378 59.408C69.5119 59.8153 69.1363 60.3858 68.97 61.0298C68.9037 61.2867 68.7381 61.5068 68.5095 61.6416C68.281 61.7764 68.0082 61.8148 67.7513 61.7485C67.4944 61.6822 67.2743 61.5166 67.1395 61.288C67.0047 61.0595 66.9662 60.7867 67.0325 60.5298H67.0288ZM78.9125 77.9785C78.8375 77.8072 78.7164 77.66 78.5625 77.5535C76.4413 76.096 76 73.6098 76 71.7798C76 69.571 77.6838 67.6473 78.6875 66.696C78.7863 66.6026 78.8649 66.49 78.9186 66.3651C78.9724 66.2402 79.0001 66.1057 79.0001 65.9698C79.0001 65.8338 78.9724 65.6993 78.9186 65.5745C78.8649 65.4496 78.7863 65.337 78.6875 65.2435C77.1025 63.7473 74.4775 62.7798 72 62.7798C70.2204 62.7814 68.4808 63.3089 67 64.296C65.2727 63.1377 63.1957 62.6175 61.1263 62.8249C59.0569 63.0323 57.1245 63.9543 55.6613 65.4323C54.7866 66.3253 54.1003 67.3849 53.6431 68.5484C53.1859 69.7118 52.9673 70.9552 53 72.2048C53.0491 74.314 53.5181 76.3922 54.3796 78.318C55.2411 80.2439 56.4779 81.9787 58.0175 83.421C58.9448 84.2971 60.1731 84.7835 61.4488 84.7798H72.4088C73.0908 84.7811 73.7657 84.6423 74.3919 84.372C75.018 84.1017 75.582 83.7057 76.0488 83.2085C76.9135 82.2779 77.6616 81.2453 78.2763 80.1335C79.1538 78.5298 79.0413 78.2798 78.9125 77.9785Z" fill="#114DC8"/>
        </g>
    </g>
    <defs>
        <clipPath id="clip0_19_4156">
            <rect width="100" height="100" fill="white" transform="translate(0 0.779785)"/>
        </clipPath>
        <clipPath id="clip1_19_4156">
            <rect width="32" height="32" fill="white" transform="translate(51 56.7798)"/>
        </clipPath>
    </defs>
</svg>
