<svg width="100" height="101" viewBox="0 0 100 101" fill="none" xmlns="http://www.w3.org/2000/svg">
    <g clip-path="url(#clip0_19_4145)">
        <path d="M75 50.7798V16.4048C75 12.953 72.2018 10.1548 68.75 10.1548L31.25 10.1548C27.7982 10.1548 25 12.953 25 16.4048L25 85.1548C25 88.6066 27.7982 91.4048 31.25 91.4048H50" stroke="#0A1216" stroke-width="3" stroke-linecap="round" stroke-linejoin="round"/>
        <path d="M50.5 24.7798C52.433 24.7798 54 23.2128 54 21.2798C54 19.3468 52.433 17.7798 50.5 17.7798C48.567 17.7798 47 19.3468 47 21.2798C47 23.2128 48.567 24.7798 50.5 24.7798Z" fill="#0A1216"/>
        <g clip-path="url(#clip1_19_4145)">
            <path d="M54 80.7799V77.9211C54 70.7361 59.7687 64.8049 66.9537 64.7799C68.6648 64.7738 70.3603 65.1055 71.9428 65.7561C73.5254 66.4067 74.964 67.3633 76.1761 68.5711C77.3881 69.7789 78.3498 71.214 79.006 72.7943C79.6622 74.3745 80 76.0688 80 77.7799V80.7799C80 81.0451 79.8946 81.2994 79.7071 81.487C79.5196 81.6745 79.2652 81.7799 79 81.7799H55C54.7348 81.7799 54.4804 81.6745 54.2929 81.487C54.1054 81.2994 54 81.0451 54 80.7799Z" fill="#114DC8" stroke="#114DC8" stroke-width="3" stroke-linecap="round" stroke-linejoin="round"/>
            <path d="M55 63.7798L58.8837 67.6635" stroke="#114DC8" stroke-width="3" stroke-linecap="round" stroke-linejoin="round"/>
            <path d="M79 63.7798L75.1375 67.6423" stroke="#114DC8" stroke-width="3" stroke-linecap="round" stroke-linejoin="round"/>
            <path d="M72.5 76.2798C72.5 76.8321 72.0523 77.2798 71.5 77.2798C70.9477 77.2798 70.5 76.8321 70.5 76.2798C70.5 75.7275 70.9477 75.2798 71.5 75.2798C72.0523 75.2798 72.5 75.7275 72.5 76.2798Z" fill="white" stroke="white"/>
            <path d="M63.5 76.2798C63.5 76.8321 63.0523 77.2798 62.5 77.2798C61.9477 77.2798 61.5 76.8321 61.5 76.2798C61.5 75.7275 61.9477 75.2798 62.5 75.2798C63.0523 75.2798 63.5 75.7275 63.5 76.2798Z" fill="white" stroke="white"/>
        </g>
    </g>
    <defs>
        <clipPath id="clip0_19_4145">
            <rect width="100" height="100" fill="white" transform="translate(0 0.779785)"/>
        </clipPath>
        <clipPath id="clip1_19_4145">
            <rect width="32" height="32" fill="white" transform="translate(51 56.7798)"/>
        </clipPath>
    </defs>
</svg>
