<svg width="100" height="101" viewBox="0 0 100 101" fill="none" xmlns="http://www.w3.org/2000/svg">
<g clip-path="url(#clip0_189_507)">
<path d="M50 78.3151C56.0039 78.3151 65.9258 78.2448 77.3438 71.4245C88.7617 64.6042 92.457 56.0573 93.6406 51.6823C93.8623 50.8929 93.7623 50.0479 93.3626 49.332C92.963 48.6161 92.2961 48.0876 91.5078 47.862C87.5639 46.8797 83.45 46.7943 79.4688 47.612" stroke="#0A1216" stroke-width="3" stroke-linecap="round" stroke-linejoin="round"/>
<path d="M20.5313 47.612C16.55 46.7943 12.4361 46.8797 8.49219 47.862C7.70392 48.0876 7.03703 48.6161 6.63735 49.332C6.23768 50.0479 6.13773 50.8929 6.35938 51.6823C7.53125 56.0573 11.2383 64.6003 22.6563 71.4245C34.0742 78.2487 43.9961 78.3151 50 78.3151" stroke="#0A1216" stroke-width="3" stroke-linecap="round" stroke-linejoin="round"/>
<path d="M36.9531 31.7526C31.75 27.5338 26.7812 25.8893 23.8281 25.2604C23.0512 25.0947 22.2405 25.2236 21.5533 25.6221C20.8661 26.0205 20.3515 26.6601 20.1093 27.4166C18.5937 32.1041 16.6796 42.9088 24.4492 56.4284C32.2187 69.9479 45.1796 77.2877 49.9843 78.3034" stroke="#114DC8" stroke-width="3" stroke-linecap="round" stroke-linejoin="round"/>
<path d="M63.0469 31.7526C68.25 27.526 73.2031 25.8932 76.1563 25.2604C76.9331 25.0947 77.7439 25.2236 78.431 25.6221C79.1182 26.0205 79.6329 26.6601 79.875 27.4166C81.3906 32.1041 83.3047 42.9088 75.5352 56.4284C67.7656 69.9479 54.8047 77.2877 50 78.3151" stroke="#114DC8" stroke-width="3" stroke-linecap="round" stroke-linejoin="round"/>
<path d="M50 78.3149C50 78.3149 65.625 69.7212 65.625 46.7446C65.625 28.7759 56.0352 19.5806 51.8789 16.4478C51.3373 16.0402 50.6778 15.8198 50 15.8198C49.3222 15.8198 48.6627 16.0402 48.1211 16.4478C43.9648 19.5806 34.375 28.7603 34.375 46.7446C34.375 69.7212 50 78.3149 50 78.3149Z" stroke="#0A1216" stroke-width="3" stroke-linecap="round" stroke-linejoin="round"/>
</g>
<defs>
<clipPath id="clip0_189_507">
<rect width="100" height="100" fill="white" transform="translate(0 0.189941)"/>
</clipPath>
</defs>
</svg>
